<?xml version="1.0" encoding="UTF-8"?>
<svg id="Layer_2" data-name="Layer 2" xmlns="http://www.w3.org/2000/svg" viewBox="0 0 326.18 326.19">
  <defs>
    <style>
      .cls-1 {
        fill: none;
        stroke: #e6e7e8;
        stroke-miterlimit: 10;
        stroke-width: .25px;
      }
    </style>
  </defs>
  <g id="Layer_1-2" data-name="Layer 1">
    <g>
      <g>
        <g>
          <rect class="cls-1" x="105.49" y="24.04" width="115.2" height="115.2" transform="translate(-9.96 139.23) rotate(-45)"/>
          <line class="cls-1" x1="183.45" y1="20.54" x2="101.99" y2="102"/>
          <line class="cls-1" x1="203.82" y1="40.91" x2="122.36" y2="122.36"/>
          <line class="cls-1" x1="224.18" y1="61.27" x2="142.72" y2="142.73"/>
          <line class="cls-1" x1="224.18" y1="102" x2="142.72" y2="20.54"/>
          <line class="cls-1" x1="203.82" y1="122.36" x2="122.36" y2="40.91"/>
          <line class="cls-1" x1="101.99" y1="61.27" x2="183.45" y2="142.73"/>
        </g>
        <g>
          <line class="cls-1" x1="167.16" y1="126.44" x2="146.8" y2="146.8"/>
          <line class="cls-1" x1="175.31" y1="134.58" x2="154.94" y2="154.95"/>
          <line class="cls-1" x1="171.23" y1="130.51" x2="150.87" y2="150.88"/>
          <line class="cls-1" x1="179.38" y1="138.66" x2="159.02" y2="159.02"/>
          <line class="cls-1" x1="146.8" y1="138.66" x2="167.16" y2="159.02"/>
          <line class="cls-1" x1="154.94" y1="130.51" x2="175.31" y2="150.88"/>
          <line class="cls-1" x1="150.87" y1="134.58" x2="171.23" y2="154.95"/>
          <line class="cls-1" x1="159.02" y1="126.44" x2="179.38" y2="146.8"/>
        </g>
        <g>
          <line class="cls-1" x1="146.8" y1="24.61" x2="126.43" y2="44.98"/>
          <line class="cls-1" x1="154.94" y1="32.76" x2="134.58" y2="53.12"/>
          <line class="cls-1" x1="150.87" y1="28.69" x2="130.5" y2="49.05"/>
          <line class="cls-1" x1="159.02" y1="36.83" x2="138.65" y2="57.2"/>
          <line class="cls-1" x1="126.43" y1="36.83" x2="146.8" y2="57.2"/>
          <line class="cls-1" x1="134.58" y1="28.69" x2="154.94" y2="49.05"/>
          <line class="cls-1" x1="130.5" y1="32.76" x2="150.87" y2="53.12"/>
          <line class="cls-1" x1="138.65" y1="24.61" x2="159.02" y2="44.98"/>
        </g>
        <g>
          <line class="cls-1" x1="167.16" y1="4.25" x2="146.8" y2="24.61"/>
          <line class="cls-1" x1="175.31" y1="12.4" x2="154.94" y2="32.76"/>
          <line class="cls-1" x1="171.23" y1="8.32" x2="150.87" y2="28.69"/>
          <line class="cls-1" x1="179.38" y1="16.47" x2="159.02" y2="36.83"/>
          <line class="cls-1" x1="146.8" y1="16.47" x2="167.16" y2="36.83"/>
          <line class="cls-1" x1="154.94" y1="8.32" x2="175.31" y2="28.69"/>
          <line class="cls-1" x1="150.87" y1="12.4" x2="171.23" y2="32.76"/>
          <line class="cls-1" x1="159.02" y1="4.25" x2="179.38" y2="24.61"/>
        </g>
        <g>
          <line class="cls-1" x1="207.89" y1="44.98" x2="187.53" y2="65.34"/>
          <line class="cls-1" x1="216.04" y1="53.12" x2="195.67" y2="73.49"/>
          <line class="cls-1" x1="211.96" y1="49.05" x2="191.6" y2="69.42"/>
          <line class="cls-1" x1="220.11" y1="57.2" x2="199.74" y2="77.56"/>
          <line class="cls-1" x1="187.53" y1="57.2" x2="207.89" y2="77.56"/>
          <line class="cls-1" x1="195.67" y1="49.05" x2="216.04" y2="69.42"/>
          <line class="cls-1" x1="191.6" y1="53.12" x2="211.96" y2="73.49"/>
          <line class="cls-1" x1="199.74" y1="44.98" x2="220.11" y2="65.34"/>
        </g>
        <g>
          <line class="cls-1" x1="187.53" y1="24.61" x2="167.16" y2="44.98"/>
          <line class="cls-1" x1="195.67" y1="32.76" x2="175.31" y2="53.12"/>
          <line class="cls-1" x1="191.6" y1="28.69" x2="171.23" y2="49.05"/>
          <line class="cls-1" x1="199.74" y1="36.83" x2="179.38" y2="57.2"/>
          <line class="cls-1" x1="167.16" y1="36.83" x2="187.53" y2="57.2"/>
          <line class="cls-1" x1="175.31" y1="28.69" x2="195.67" y2="49.05"/>
          <line class="cls-1" x1="171.23" y1="32.76" x2="191.6" y2="53.12"/>
          <line class="cls-1" x1="179.38" y1="24.61" x2="199.74" y2="44.98"/>
        </g>
        <g>
          <line class="cls-1" x1="228.26" y1="65.34" x2="207.89" y2="85.71"/>
          <line class="cls-1" x1="236.4" y1="73.49" x2="216.04" y2="93.85"/>
          <line class="cls-1" x1="232.33" y1="69.42" x2="211.96" y2="89.78"/>
          <line class="cls-1" x1="240.47" y1="77.56" x2="220.11" y2="97.93"/>
          <line class="cls-1" x1="207.89" y1="77.56" x2="228.26" y2="97.93"/>
          <line class="cls-1" x1="216.04" y1="69.42" x2="236.4" y2="89.78"/>
          <line class="cls-1" x1="211.96" y1="73.49" x2="232.33" y2="93.85"/>
          <line class="cls-1" x1="220.11" y1="65.34" x2="240.47" y2="85.71"/>
        </g>
        <g>
          <line class="cls-1" x1="167.16" y1="44.98" x2="146.8" y2="65.34"/>
          <line class="cls-1" x1="175.31" y1="53.12" x2="154.94" y2="73.49"/>
          <line class="cls-1" x1="171.23" y1="49.05" x2="150.87" y2="69.42"/>
          <line class="cls-1" x1="179.38" y1="57.2" x2="159.02" y2="77.56"/>
          <line class="cls-1" x1="146.8" y1="57.2" x2="167.16" y2="77.56"/>
          <line class="cls-1" x1="154.94" y1="49.05" x2="175.31" y2="69.42"/>
          <line class="cls-1" x1="150.87" y1="53.12" x2="171.23" y2="73.49"/>
          <line class="cls-1" x1="159.02" y1="44.98" x2="179.38" y2="65.34"/>
        </g>
        <g>
          <line class="cls-1" x1="126.43" y1="85.71" x2="106.07" y2="106.07"/>
          <line class="cls-1" x1="134.58" y1="93.85" x2="114.21" y2="114.22"/>
          <line class="cls-1" x1="130.5" y1="89.78" x2="110.14" y2="110.15"/>
          <line class="cls-1" x1="138.65" y1="97.93" x2="118.29" y2="118.29"/>
          <line class="cls-1" x1="106.07" y1="97.93" x2="126.43" y2="118.29"/>
          <line class="cls-1" x1="114.21" y1="89.78" x2="134.58" y2="110.15"/>
          <line class="cls-1" x1="110.14" y1="93.85" x2="130.5" y2="114.22"/>
          <line class="cls-1" x1="118.29" y1="85.71" x2="138.65" y2="106.07"/>
        </g>
        <g>
          <line class="cls-1" x1="126.43" y1="44.98" x2="106.07" y2="65.34"/>
          <line class="cls-1" x1="134.58" y1="53.12" x2="114.21" y2="73.49"/>
          <line class="cls-1" x1="130.5" y1="49.05" x2="110.14" y2="69.42"/>
          <line class="cls-1" x1="138.65" y1="57.2" x2="118.29" y2="77.56"/>
          <line class="cls-1" x1="106.07" y1="57.2" x2="126.43" y2="77.56"/>
          <line class="cls-1" x1="114.21" y1="49.05" x2="134.58" y2="69.42"/>
          <line class="cls-1" x1="110.14" y1="53.12" x2="130.5" y2="73.49"/>
          <line class="cls-1" x1="118.29" y1="44.98" x2="138.65" y2="65.34"/>
        </g>
        <g>
          <line class="cls-1" x1="146.8" y1="65.34" x2="126.43" y2="85.71"/>
          <line class="cls-1" x1="154.94" y1="73.49" x2="134.58" y2="93.85"/>
          <line class="cls-1" x1="150.87" y1="69.42" x2="130.5" y2="89.78"/>
          <line class="cls-1" x1="159.02" y1="77.56" x2="138.65" y2="97.93"/>
          <line class="cls-1" x1="126.43" y1="77.56" x2="146.8" y2="97.93"/>
          <line class="cls-1" x1="134.58" y1="69.42" x2="154.94" y2="89.78"/>
          <line class="cls-1" x1="130.5" y1="73.49" x2="150.87" y2="93.85"/>
          <line class="cls-1" x1="138.65" y1="65.34" x2="159.02" y2="85.71"/>
        </g>
        <g>
          <line class="cls-1" x1="106.07" y1="65.34" x2="85.7" y2="85.71"/>
          <line class="cls-1" x1="114.21" y1="73.49" x2="93.85" y2="93.85"/>
          <line class="cls-1" x1="110.14" y1="69.42" x2="89.78" y2="89.78"/>
          <line class="cls-1" x1="118.29" y1="77.56" x2="97.92" y2="97.93"/>
          <line class="cls-1" x1="85.7" y1="77.56" x2="106.07" y2="97.93"/>
          <line class="cls-1" x1="93.85" y1="69.42" x2="114.21" y2="89.78"/>
          <line class="cls-1" x1="89.78" y1="73.49" x2="110.14" y2="93.85"/>
          <line class="cls-1" x1="97.92" y1="65.34" x2="118.29" y2="85.71"/>
        </g>
        <g>
          <line class="cls-1" x1="146.8" y1="106.07" x2="126.43" y2="126.44"/>
          <line class="cls-1" x1="154.94" y1="114.22" x2="134.58" y2="134.58"/>
          <line class="cls-1" x1="150.87" y1="110.15" x2="130.5" y2="130.51"/>
          <line class="cls-1" x1="159.02" y1="118.29" x2="138.65" y2="138.66"/>
          <line class="cls-1" x1="126.43" y1="118.29" x2="146.8" y2="138.66"/>
          <line class="cls-1" x1="134.58" y1="110.15" x2="154.94" y2="130.51"/>
          <line class="cls-1" x1="130.5" y1="114.22" x2="150.87" y2="134.58"/>
          <line class="cls-1" x1="138.65" y1="106.07" x2="159.02" y2="126.44"/>
        </g>
        <g>
          <line class="cls-1" x1="167.16" y1="85.71" x2="146.8" y2="106.07"/>
          <line class="cls-1" x1="175.31" y1="93.85" x2="154.94" y2="114.22"/>
          <line class="cls-1" x1="171.23" y1="89.78" x2="150.87" y2="110.15"/>
          <line class="cls-1" x1="179.38" y1="97.93" x2="159.02" y2="118.29"/>
          <line class="cls-1" x1="146.8" y1="97.93" x2="167.16" y2="118.29"/>
          <line class="cls-1" x1="154.94" y1="89.78" x2="175.31" y2="110.15"/>
          <line class="cls-1" x1="150.87" y1="93.85" x2="171.23" y2="114.22"/>
          <line class="cls-1" x1="159.02" y1="85.71" x2="179.38" y2="106.07"/>
        </g>
        <g>
          <line class="cls-1" x1="207.89" y1="85.71" x2="187.53" y2="106.07"/>
          <line class="cls-1" x1="216.04" y1="93.85" x2="195.67" y2="114.22"/>
          <line class="cls-1" x1="211.96" y1="89.78" x2="191.6" y2="110.15"/>
          <line class="cls-1" x1="220.11" y1="97.93" x2="199.74" y2="118.29"/>
          <line class="cls-1" x1="187.53" y1="97.93" x2="207.89" y2="118.29"/>
          <line class="cls-1" x1="195.67" y1="89.78" x2="216.04" y2="110.15"/>
          <line class="cls-1" x1="191.6" y1="93.85" x2="211.96" y2="114.22"/>
          <line class="cls-1" x1="199.74" y1="85.71" x2="220.11" y2="106.07"/>
        </g>
        <g>
          <line class="cls-1" x1="187.53" y1="65.34" x2="167.16" y2="85.71"/>
          <line class="cls-1" x1="195.67" y1="73.49" x2="175.31" y2="93.85"/>
          <line class="cls-1" x1="191.6" y1="69.42" x2="171.23" y2="89.78"/>
          <line class="cls-1" x1="199.74" y1="77.56" x2="179.38" y2="97.93"/>
          <line class="cls-1" x1="167.16" y1="77.56" x2="187.53" y2="97.93"/>
          <line class="cls-1" x1="175.31" y1="69.42" x2="195.67" y2="89.78"/>
          <line class="cls-1" x1="171.23" y1="73.49" x2="191.6" y2="93.85"/>
          <line class="cls-1" x1="179.38" y1="65.34" x2="199.74" y2="85.71"/>
        </g>
        <g>
          <line class="cls-1" x1="187.53" y1="106.07" x2="167.16" y2="126.44"/>
          <line class="cls-1" x1="195.67" y1="114.22" x2="175.31" y2="134.58"/>
          <line class="cls-1" x1="191.6" y1="110.15" x2="171.23" y2="130.51"/>
          <line class="cls-1" x1="199.74" y1="118.29" x2="179.38" y2="138.66"/>
          <line class="cls-1" x1="167.16" y1="118.29" x2="187.53" y2="138.66"/>
          <line class="cls-1" x1="175.31" y1="110.15" x2="195.67" y2="130.51"/>
          <line class="cls-1" x1="171.23" y1="114.22" x2="191.6" y2="134.58"/>
          <line class="cls-1" x1="179.38" y1="106.07" x2="199.74" y2="126.44"/>
        </g>
      </g>
      <g>
        <polyline class="cls-1" points="244.55 244.55 326.01 163.09 244.55 81.64"/>
        <line class="cls-1" x1="264.91" y1="102" x2="183.45" y2="183.46"/>
        <line class="cls-1" x1="285.28" y1="122.36" x2="203.82" y2="203.82"/>
        <line class="cls-1" x1="305.64" y1="142.73" x2="224.18" y2="224.19"/>
        <line class="cls-1" x1="305.64" y1="183.46" x2="224.18" y2="102"/>
        <line class="cls-1" x1="285.28" y1="203.82" x2="203.82" y2="122.36"/>
        <line class="cls-1" x1="183.45" y1="142.73" x2="264.91" y2="224.19"/>
        <g>
          <line class="cls-1" x1="248.62" y1="207.9" x2="228.26" y2="228.26"/>
          <line class="cls-1" x1="256.77" y1="216.04" x2="236.4" y2="236.41"/>
          <line class="cls-1" x1="252.69" y1="211.97" x2="232.33" y2="232.33"/>
          <line class="cls-1" x1="260.84" y1="220.12" x2="240.47" y2="240.48"/>
          <line class="cls-1" x1="228.26" y1="220.12" x2="248.62" y2="240.48"/>
          <line class="cls-1" x1="236.4" y1="211.97" x2="256.77" y2="232.33"/>
          <line class="cls-1" x1="232.33" y1="216.04" x2="252.69" y2="236.41"/>
          <line class="cls-1" x1="240.47" y1="207.9" x2="260.84" y2="228.26"/>
        </g>
        <g>
          <line class="cls-1" x1="228.26" y1="106.07" x2="207.89" y2="126.44"/>
          <line class="cls-1" x1="236.4" y1="114.22" x2="216.04" y2="134.58"/>
          <line class="cls-1" x1="232.33" y1="110.15" x2="211.96" y2="130.51"/>
          <line class="cls-1" x1="240.47" y1="118.29" x2="220.11" y2="138.66"/>
          <line class="cls-1" x1="207.89" y1="118.29" x2="228.26" y2="138.66"/>
          <line class="cls-1" x1="216.04" y1="110.15" x2="236.4" y2="130.51"/>
          <line class="cls-1" x1="211.96" y1="114.22" x2="232.33" y2="134.58"/>
          <line class="cls-1" x1="220.11" y1="106.07" x2="240.47" y2="126.44"/>
        </g>
        <g>
          <line class="cls-1" x1="248.62" y1="85.71" x2="228.26" y2="106.07"/>
          <line class="cls-1" x1="256.77" y1="93.85" x2="236.4" y2="114.22"/>
          <line class="cls-1" x1="252.69" y1="89.78" x2="232.33" y2="110.15"/>
          <line class="cls-1" x1="260.84" y1="97.93" x2="240.47" y2="118.29"/>
          <line class="cls-1" x1="228.26" y1="97.93" x2="248.62" y2="118.29"/>
          <line class="cls-1" x1="236.4" y1="89.78" x2="256.77" y2="110.15"/>
          <line class="cls-1" x1="232.33" y1="93.85" x2="252.69" y2="114.22"/>
          <line class="cls-1" x1="240.47" y1="85.71" x2="260.84" y2="106.07"/>
        </g>
        <g>
          <line class="cls-1" x1="289.35" y1="126.44" x2="268.98" y2="146.8"/>
          <line class="cls-1" x1="297.5" y1="134.58" x2="277.13" y2="154.95"/>
          <line class="cls-1" x1="293.42" y1="130.51" x2="273.06" y2="150.88"/>
          <line class="cls-1" x1="301.57" y1="138.66" x2="281.2" y2="159.02"/>
          <line class="cls-1" x1="268.98" y1="138.66" x2="289.35" y2="159.02"/>
          <line class="cls-1" x1="277.13" y1="130.51" x2="297.5" y2="150.88"/>
          <line class="cls-1" x1="273.06" y1="134.58" x2="293.42" y2="154.95"/>
          <line class="cls-1" x1="281.2" y1="126.44" x2="301.57" y2="146.8"/>
        </g>
        <g>
          <line class="cls-1" x1="268.98" y1="106.07" x2="248.62" y2="126.44"/>
          <line class="cls-1" x1="277.13" y1="114.22" x2="256.77" y2="134.58"/>
          <line class="cls-1" x1="273.06" y1="110.15" x2="252.69" y2="130.51"/>
          <line class="cls-1" x1="281.2" y1="118.29" x2="260.84" y2="138.66"/>
          <line class="cls-1" x1="248.62" y1="118.29" x2="268.98" y2="138.66"/>
          <line class="cls-1" x1="256.77" y1="110.15" x2="277.13" y2="130.51"/>
          <line class="cls-1" x1="252.69" y1="114.22" x2="273.06" y2="134.58"/>
          <line class="cls-1" x1="260.84" y1="106.07" x2="281.2" y2="126.44"/>
        </g>
        <g>
          <line class="cls-1" x1="309.71" y1="146.8" x2="289.35" y2="167.17"/>
          <line class="cls-1" x1="317.86" y1="154.95" x2="297.5" y2="175.31"/>
          <line class="cls-1" x1="313.79" y1="150.88" x2="293.42" y2="171.24"/>
          <line class="cls-1" x1="321.93" y1="159.02" x2="301.57" y2="179.39"/>
          <line class="cls-1" x1="289.35" y1="159.02" x2="309.71" y2="179.39"/>
          <line class="cls-1" x1="297.5" y1="150.88" x2="317.86" y2="171.24"/>
          <line class="cls-1" x1="293.42" y1="154.95" x2="313.79" y2="175.31"/>
          <line class="cls-1" x1="301.57" y1="146.8" x2="321.93" y2="167.17"/>
        </g>
        <g>
          <line class="cls-1" x1="248.62" y1="126.44" x2="228.26" y2="146.8"/>
          <line class="cls-1" x1="256.77" y1="134.58" x2="236.4" y2="154.95"/>
          <line class="cls-1" x1="252.69" y1="130.51" x2="232.33" y2="150.88"/>
          <line class="cls-1" x1="260.84" y1="138.66" x2="240.47" y2="159.02"/>
          <line class="cls-1" x1="228.26" y1="138.66" x2="248.62" y2="159.02"/>
          <line class="cls-1" x1="236.4" y1="130.51" x2="256.77" y2="150.88"/>
          <line class="cls-1" x1="232.33" y1="134.58" x2="252.69" y2="154.95"/>
          <line class="cls-1" x1="240.47" y1="126.44" x2="260.84" y2="146.8"/>
        </g>
        <g>
          <line class="cls-1" x1="207.89" y1="167.17" x2="187.53" y2="187.53"/>
          <line class="cls-1" x1="216.04" y1="175.31" x2="195.67" y2="195.68"/>
          <line class="cls-1" x1="211.96" y1="171.24" x2="191.6" y2="191.6"/>
          <line class="cls-1" x1="220.11" y1="179.39" x2="199.74" y2="199.75"/>
          <line class="cls-1" x1="187.53" y1="179.39" x2="207.89" y2="199.75"/>
          <line class="cls-1" x1="195.67" y1="171.24" x2="216.04" y2="191.6"/>
          <line class="cls-1" x1="191.6" y1="175.31" x2="211.96" y2="195.68"/>
          <line class="cls-1" x1="199.74" y1="167.17" x2="220.11" y2="187.53"/>
        </g>
        <g>
          <line class="cls-1" x1="207.89" y1="126.44" x2="187.53" y2="146.8"/>
          <line class="cls-1" x1="216.04" y1="134.58" x2="195.67" y2="154.95"/>
          <line class="cls-1" x1="211.96" y1="130.51" x2="191.6" y2="150.88"/>
          <line class="cls-1" x1="220.11" y1="138.66" x2="199.74" y2="159.02"/>
          <line class="cls-1" x1="187.53" y1="138.66" x2="207.89" y2="159.02"/>
          <line class="cls-1" x1="195.67" y1="130.51" x2="216.04" y2="150.88"/>
          <line class="cls-1" x1="191.6" y1="134.58" x2="211.96" y2="154.95"/>
          <line class="cls-1" x1="199.74" y1="126.44" x2="220.11" y2="146.8"/>
        </g>
        <g>
          <line class="cls-1" x1="228.26" y1="146.8" x2="207.89" y2="167.17"/>
          <line class="cls-1" x1="236.4" y1="154.95" x2="216.04" y2="175.31"/>
          <line class="cls-1" x1="232.33" y1="150.88" x2="211.96" y2="171.24"/>
          <line class="cls-1" x1="240.47" y1="159.02" x2="220.11" y2="179.39"/>
          <line class="cls-1" x1="207.89" y1="159.02" x2="228.26" y2="179.39"/>
          <line class="cls-1" x1="216.04" y1="150.88" x2="236.4" y2="171.24"/>
          <line class="cls-1" x1="211.96" y1="154.95" x2="232.33" y2="175.31"/>
          <line class="cls-1" x1="220.11" y1="146.8" x2="240.47" y2="167.17"/>
        </g>
        <g>
          <line class="cls-1" x1="187.53" y1="146.8" x2="167.16" y2="167.17"/>
          <line class="cls-1" x1="195.67" y1="154.95" x2="175.31" y2="175.31"/>
          <line class="cls-1" x1="191.6" y1="150.88" x2="171.23" y2="171.24"/>
          <line class="cls-1" x1="199.74" y1="159.02" x2="179.38" y2="179.39"/>
          <line class="cls-1" x1="167.16" y1="159.02" x2="187.53" y2="179.39"/>
          <line class="cls-1" x1="175.31" y1="150.88" x2="195.67" y2="171.24"/>
          <line class="cls-1" x1="171.23" y1="154.95" x2="191.6" y2="175.31"/>
          <line class="cls-1" x1="179.38" y1="146.8" x2="199.74" y2="167.17"/>
        </g>
        <g>
          <line class="cls-1" x1="228.26" y1="187.53" x2="207.89" y2="207.9"/>
          <line class="cls-1" x1="236.4" y1="195.68" x2="216.04" y2="216.04"/>
          <line class="cls-1" x1="232.33" y1="191.6" x2="211.96" y2="211.97"/>
          <line class="cls-1" x1="240.47" y1="199.75" x2="220.11" y2="220.12"/>
          <line class="cls-1" x1="207.89" y1="199.75" x2="228.26" y2="220.12"/>
          <line class="cls-1" x1="216.04" y1="191.6" x2="236.4" y2="211.97"/>
          <line class="cls-1" x1="211.96" y1="195.68" x2="232.33" y2="216.04"/>
          <line class="cls-1" x1="220.11" y1="187.53" x2="240.47" y2="207.9"/>
        </g>
        <g>
          <line class="cls-1" x1="248.62" y1="167.17" x2="228.26" y2="187.53"/>
          <line class="cls-1" x1="256.77" y1="175.31" x2="236.4" y2="195.68"/>
          <line class="cls-1" x1="252.69" y1="171.24" x2="232.33" y2="191.6"/>
          <line class="cls-1" x1="260.84" y1="179.39" x2="240.47" y2="199.75"/>
          <line class="cls-1" x1="228.26" y1="179.39" x2="248.62" y2="199.75"/>
          <line class="cls-1" x1="236.4" y1="171.24" x2="256.77" y2="191.6"/>
          <line class="cls-1" x1="232.33" y1="175.31" x2="252.69" y2="195.68"/>
          <line class="cls-1" x1="240.47" y1="167.17" x2="260.84" y2="187.53"/>
        </g>
        <g>
          <line class="cls-1" x1="289.35" y1="167.17" x2="268.98" y2="187.53"/>
          <line class="cls-1" x1="297.5" y1="175.31" x2="277.13" y2="195.68"/>
          <line class="cls-1" x1="293.42" y1="171.24" x2="273.06" y2="191.6"/>
          <line class="cls-1" x1="301.57" y1="179.39" x2="281.2" y2="199.75"/>
          <line class="cls-1" x1="268.98" y1="179.39" x2="289.35" y2="199.75"/>
          <line class="cls-1" x1="277.13" y1="171.24" x2="297.5" y2="191.6"/>
          <line class="cls-1" x1="273.06" y1="175.31" x2="293.42" y2="195.68"/>
          <line class="cls-1" x1="281.2" y1="167.17" x2="301.57" y2="187.53"/>
        </g>
        <g>
          <line class="cls-1" x1="268.98" y1="146.8" x2="248.62" y2="167.17"/>
          <line class="cls-1" x1="277.13" y1="154.95" x2="256.77" y2="175.31"/>
          <line class="cls-1" x1="273.06" y1="150.88" x2="252.69" y2="171.24"/>
          <line class="cls-1" x1="281.2" y1="159.02" x2="260.84" y2="179.39"/>
          <line class="cls-1" x1="248.62" y1="159.02" x2="268.98" y2="179.39"/>
          <line class="cls-1" x1="256.77" y1="150.88" x2="277.13" y2="171.24"/>
          <line class="cls-1" x1="252.69" y1="154.95" x2="273.06" y2="175.31"/>
          <line class="cls-1" x1="260.84" y1="146.8" x2="281.2" y2="167.17"/>
        </g>
        <g>
          <line class="cls-1" x1="268.98" y1="187.53" x2="248.62" y2="207.9"/>
          <line class="cls-1" x1="277.13" y1="195.68" x2="256.77" y2="216.04"/>
          <line class="cls-1" x1="273.06" y1="191.6" x2="252.69" y2="211.97"/>
          <line class="cls-1" x1="281.2" y1="199.75" x2="260.84" y2="220.12"/>
          <line class="cls-1" x1="248.62" y1="199.75" x2="268.98" y2="220.12"/>
          <line class="cls-1" x1="256.77" y1="191.6" x2="277.13" y2="211.97"/>
          <line class="cls-1" x1="252.69" y1="195.68" x2="273.06" y2="216.04"/>
          <line class="cls-1" x1="260.84" y1="187.53" x2="281.2" y2="207.9"/>
        </g>
      </g>
      <g>
        <polyline class="cls-1" points="81.52 81.75 .18 163.33 81.75 244.67 163.21 163.21"/>
        <line class="cls-1" x1="61.36" y1="224.33" x2="142.7" y2="142.75"/>
        <line class="cls-1" x1="40.97" y1="204" x2="122.31" y2="122.42"/>
        <line class="cls-1" x1="20.57" y1="183.66" x2="101.91" y2="102.08"/>
        <line class="cls-1" x1="20.51" y1="142.93" x2="102.09" y2="224.27"/>
        <line class="cls-1" x1="40.85" y1="122.54" x2="122.42" y2="203.88"/>
        <line class="cls-1" x1="142.76" y1="183.48" x2="61.18" y2="102.14"/>
        <g>
          <line class="cls-1" x1="77.5" y1="118.41" x2="97.83" y2="98.02"/>
          <line class="cls-1" x1="69.34" y1="110.28" x2="89.67" y2="89.88"/>
          <line class="cls-1" x1="73.42" y1="114.34" x2="93.75" y2="93.95"/>
          <line class="cls-1" x1="65.26" y1="106.21" x2="85.6" y2="85.82"/>
          <line class="cls-1" x1="97.84" y1="106.16" x2="77.45" y2="85.83"/>
          <line class="cls-1" x1="89.71" y1="114.32" x2="69.32" y2="93.98"/>
          <line class="cls-1" x1="93.78" y1="110.24" x2="73.38" y2="89.91"/>
          <line class="cls-1" x1="85.64" y1="118.4" x2="65.25" y2="98.06"/>
        </g>
        <g>
          <line class="cls-1" x1="98.01" y1="220.2" x2="118.35" y2="199.81"/>
          <line class="cls-1" x1="89.85" y1="212.07" x2="110.19" y2="191.68"/>
          <line class="cls-1" x1="93.93" y1="216.14" x2="114.27" y2="195.74"/>
          <line class="cls-1" x1="85.77" y1="208" x2="106.11" y2="187.61"/>
          <line class="cls-1" x1="118.36" y1="207.96" x2="97.96" y2="187.62"/>
          <line class="cls-1" x1="110.22" y1="216.11" x2="89.83" y2="195.78"/>
          <line class="cls-1" x1="114.29" y1="212.03" x2="93.9" y2="191.7"/>
          <line class="cls-1" x1="106.16" y1="220.19" x2="85.76" y2="199.86"/>
        </g>
        <g>
          <line class="cls-1" x1="77.68" y1="240.6" x2="98.01" y2="220.2"/>
          <line class="cls-1" x1="69.52" y1="232.46" x2="89.85" y2="212.07"/>
          <line class="cls-1" x1="73.6" y1="236.53" x2="93.93" y2="216.14"/>
          <line class="cls-1" x1="65.44" y1="228.4" x2="85.77" y2="208"/>
          <line class="cls-1" x1="98.02" y1="228.35" x2="77.63" y2="208.01"/>
          <line class="cls-1" x1="89.89" y1="236.51" x2="69.49" y2="216.17"/>
          <line class="cls-1" x1="93.95" y1="232.43" x2="73.56" y2="212.09"/>
          <line class="cls-1" x1="85.82" y1="240.59" x2="65.43" y2="220.25"/>
        </g>
        <g>
          <line class="cls-1" x1="36.89" y1="199.93" x2="57.22" y2="179.53"/>
          <line class="cls-1" x1="28.73" y1="191.79" x2="49.06" y2="171.4"/>
          <line class="cls-1" x1="32.81" y1="195.86" x2="53.14" y2="175.47"/>
          <line class="cls-1" x1="24.65" y1="187.73" x2="44.98" y2="167.33"/>
          <line class="cls-1" x1="57.23" y1="187.68" x2="36.84" y2="167.34"/>
          <line class="cls-1" x1="49.1" y1="195.84" x2="28.71" y2="175.5"/>
          <line class="cls-1" x1="53.17" y1="191.76" x2="32.77" y2="171.42"/>
          <line class="cls-1" x1="45.03" y1="199.92" x2="24.64" y2="179.58"/>
        </g>
        <g>
          <line class="cls-1" x1="57.28" y1="220.26" x2="77.62" y2="199.87"/>
          <line class="cls-1" x1="49.12" y1="212.13" x2="69.46" y2="191.73"/>
          <line class="cls-1" x1="53.2" y1="216.2" x2="73.54" y2="195.8"/>
          <line class="cls-1" x1="45.04" y1="208.06" x2="65.38" y2="187.67"/>
          <line class="cls-1" x1="77.63" y1="208.01" x2="57.23" y2="187.68"/>
          <line class="cls-1" x1="69.49" y1="216.17" x2="49.1" y2="195.84"/>
          <line class="cls-1" x1="73.56" y1="212.09" x2="53.17" y2="191.76"/>
          <line class="cls-1" x1="65.43" y1="220.25" x2="45.03" y2="199.92"/>
        </g>
        <g>
          <line class="cls-1" x1="16.49" y1="179.59" x2="36.83" y2="159.2"/>
          <line class="cls-1" x1="8.33" y1="171.46" x2="28.67" y2="151.06"/>
          <line class="cls-1" x1="12.41" y1="175.53" x2="32.75" y2="155.13"/>
          <line class="cls-1" x1="4.26" y1="167.39" x2="24.59" y2="147"/>
          <line class="cls-1" x1="36.84" y1="167.34" x2="16.44" y2="147.01"/>
          <line class="cls-1" x1="28.71" y1="175.5" x2="8.31" y2="155.17"/>
          <line class="cls-1" x1="32.77" y1="171.42" x2="12.38" y2="151.09"/>
          <line class="cls-1" x1="24.64" y1="179.58" x2="4.24" y2="159.25"/>
        </g>
        <g>
          <line class="cls-1" x1="77.62" y1="199.87" x2="97.95" y2="179.47"/>
          <line class="cls-1" x1="69.46" y1="191.73" x2="89.79" y2="171.34"/>
          <line class="cls-1" x1="73.54" y1="195.8" x2="93.87" y2="175.41"/>
          <line class="cls-1" x1="65.38" y1="187.67" x2="85.71" y2="167.27"/>
          <line class="cls-1" x1="97.96" y1="187.62" x2="77.57" y2="167.29"/>
          <line class="cls-1" x1="89.83" y1="195.78" x2="69.43" y2="175.44"/>
          <line class="cls-1" x1="93.9" y1="191.7" x2="73.5" y2="171.36"/>
          <line class="cls-1" x1="85.76" y1="199.86" x2="65.37" y2="179.52"/>
        </g>
        <g>
          <line class="cls-1" x1="118.29" y1="159.08" x2="138.62" y2="138.69"/>
          <line class="cls-1" x1="110.13" y1="150.95" x2="130.46" y2="130.55"/>
          <line class="cls-1" x1="114.21" y1="155.01" x2="134.54" y2="134.62"/>
          <line class="cls-1" x1="106.05" y1="146.88" x2="126.38" y2="126.49"/>
          <line class="cls-1" x1="138.63" y1="146.83" x2="118.24" y2="126.5"/>
          <line class="cls-1" x1="130.5" y1="154.99" x2="110.1" y2="134.65"/>
          <line class="cls-1" x1="134.57" y1="150.91" x2="114.17" y2="130.58"/>
          <line class="cls-1" x1="126.43" y1="159.07" x2="106.04" y2="138.73"/>
        </g>
        <g>
          <line class="cls-1" x1="118.35" y1="199.81" x2="138.68" y2="179.42"/>
          <line class="cls-1" x1="110.19" y1="191.68" x2="130.52" y2="171.28"/>
          <line class="cls-1" x1="114.27" y1="195.74" x2="134.6" y2="175.35"/>
          <line class="cls-1" x1="106.11" y1="187.61" x2="126.44" y2="167.21"/>
          <line class="cls-1" x1="138.69" y1="187.56" x2="118.3" y2="167.23"/>
          <line class="cls-1" x1="130.56" y1="195.72" x2="110.16" y2="175.38"/>
          <line class="cls-1" x1="134.62" y1="191.64" x2="114.23" y2="171.31"/>
          <line class="cls-1" x1="126.49" y1="199.8" x2="106.1" y2="179.46"/>
        </g>
        <g>
          <line class="cls-1" x1="97.95" y1="179.47" x2="118.29" y2="159.08"/>
          <line class="cls-1" x1="89.79" y1="171.34" x2="110.13" y2="150.95"/>
          <line class="cls-1" x1="93.87" y1="175.41" x2="114.21" y2="155.01"/>
          <line class="cls-1" x1="85.71" y1="167.27" x2="106.05" y2="146.88"/>
          <line class="cls-1" x1="118.3" y1="167.23" x2="97.9" y2="146.89"/>
          <line class="cls-1" x1="110.16" y1="175.38" x2="89.77" y2="155.05"/>
          <line class="cls-1" x1="114.23" y1="171.31" x2="93.84" y2="150.97"/>
          <line class="cls-1" x1="106.1" y1="179.46" x2="85.7" y2="159.13"/>
        </g>
        <g>
          <line class="cls-1" x1="138.68" y1="179.42" x2="159.02" y2="159.02"/>
          <line class="cls-1" x1="130.52" y1="171.28" x2="150.86" y2="150.89"/>
          <line class="cls-1" x1="134.6" y1="175.35" x2="154.94" y2="154.95"/>
          <line class="cls-1" x1="126.44" y1="167.21" x2="146.78" y2="146.82"/>
          <line class="cls-1" x1="159.03" y1="167.17" x2="138.63" y2="146.83"/>
          <line class="cls-1" x1="150.89" y1="175.32" x2="130.5" y2="154.99"/>
          <line class="cls-1" x1="154.96" y1="171.25" x2="134.57" y2="150.91"/>
          <line class="cls-1" x1="146.83" y1="179.4" x2="126.43" y2="159.07"/>
        </g>
        <g>
          <line class="cls-1" x1="97.89" y1="138.75" x2="118.23" y2="118.35"/>
          <line class="cls-1" x1="89.73" y1="130.61" x2="110.07" y2="110.22"/>
          <line class="cls-1" x1="93.81" y1="134.68" x2="114.15" y2="114.28"/>
          <line class="cls-1" x1="85.66" y1="126.54" x2="105.99" y2="106.15"/>
          <line class="cls-1" x1="118.24" y1="126.5" x2="97.84" y2="106.16"/>
          <line class="cls-1" x1="110.1" y1="134.65" x2="89.71" y2="114.32"/>
          <line class="cls-1" x1="114.17" y1="130.58" x2="93.78" y2="110.24"/>
          <line class="cls-1" x1="106.04" y1="138.73" x2="85.64" y2="118.4"/>
        </g>
        <g>
          <line class="cls-1" x1="77.56" y1="159.14" x2="97.89" y2="138.75"/>
          <line class="cls-1" x1="69.4" y1="151.01" x2="89.73" y2="130.61"/>
          <line class="cls-1" x1="73.48" y1="155.07" x2="93.81" y2="134.68"/>
          <line class="cls-1" x1="65.32" y1="146.94" x2="85.66" y2="126.54"/>
          <line class="cls-1" x1="97.9" y1="146.89" x2="77.51" y2="126.56"/>
          <line class="cls-1" x1="89.77" y1="155.05" x2="69.38" y2="134.71"/>
          <line class="cls-1" x1="93.84" y1="150.97" x2="73.44" y2="130.64"/>
          <line class="cls-1" x1="85.7" y1="159.13" x2="65.31" y2="138.79"/>
        </g>
        <g>
          <line class="cls-1" x1="36.83" y1="159.2" x2="57.16" y2="138.8"/>
          <line class="cls-1" x1="28.67" y1="151.06" x2="49" y2="130.67"/>
          <line class="cls-1" x1="32.75" y1="155.13" x2="53.08" y2="134.74"/>
          <line class="cls-1" x1="24.59" y1="147" x2="44.93" y2="126.6"/>
          <line class="cls-1" x1="57.17" y1="146.95" x2="36.78" y2="126.62"/>
          <line class="cls-1" x1="49.04" y1="155.11" x2="28.65" y2="134.77"/>
          <line class="cls-1" x1="53.11" y1="151.03" x2="32.71" y2="130.69"/>
          <line class="cls-1" x1="44.97" y1="159.19" x2="24.58" y2="138.85"/>
        </g>
        <g>
          <line class="cls-1" x1="57.22" y1="179.53" x2="77.56" y2="159.14"/>
          <line class="cls-1" x1="49.06" y1="171.4" x2="69.4" y2="151.01"/>
          <line class="cls-1" x1="53.14" y1="175.47" x2="73.48" y2="155.07"/>
          <line class="cls-1" x1="44.98" y1="167.33" x2="65.32" y2="146.94"/>
          <line class="cls-1" x1="77.57" y1="167.29" x2="57.17" y2="146.95"/>
          <line class="cls-1" x1="69.43" y1="175.44" x2="49.04" y2="155.11"/>
          <line class="cls-1" x1="73.5" y1="171.36" x2="53.11" y2="151.03"/>
          <line class="cls-1" x1="65.37" y1="179.52" x2="44.97" y2="159.19"/>
        </g>
        <g>
          <line class="cls-1" x1="57.16" y1="138.8" x2="77.5" y2="118.41"/>
          <line class="cls-1" x1="49" y1="130.67" x2="69.34" y2="110.28"/>
          <line class="cls-1" x1="53.08" y1="134.74" x2="73.42" y2="114.34"/>
          <line class="cls-1" x1="44.93" y1="126.6" x2="65.26" y2="106.21"/>
          <line class="cls-1" x1="77.51" y1="126.56" x2="57.11" y2="106.22"/>
          <line class="cls-1" x1="69.38" y1="134.71" x2="48.98" y2="114.38"/>
          <line class="cls-1" x1="73.44" y1="130.64" x2="53.05" y2="110.3"/>
          <line class="cls-1" x1="65.31" y1="138.79" x2="44.91" y2="118.46"/>
        </g>
      </g>
      <g>
        <polyline class="cls-1" points="81.63 244.55 163.09 326.01 244.55 244.55 163.09 163.09"/>
        <line class="cls-1" x1="224.18" y1="264.92" x2="142.72" y2="183.46"/>
        <line class="cls-1" x1="203.82" y1="285.28" x2="122.36" y2="203.82"/>
        <line class="cls-1" x1="183.45" y1="305.65" x2="101.99" y2="224.19"/>
        <line class="cls-1" x1="142.72" y1="305.65" x2="224.18" y2="224.19"/>
        <line class="cls-1" x1="122.36" y1="285.28" x2="203.82" y2="203.82"/>
        <line class="cls-1" x1="183.45" y1="183.46" x2="101.99" y2="264.92"/>
        <g>
          <line class="cls-1" x1="118.29" y1="248.63" x2="97.92" y2="228.26"/>
          <line class="cls-1" x1="110.14" y1="256.77" x2="89.78" y2="236.41"/>
          <line class="cls-1" x1="114.21" y1="252.7" x2="93.85" y2="232.33"/>
          <line class="cls-1" x1="106.07" y1="260.84" x2="85.7" y2="240.48"/>
          <line class="cls-1" x1="106.07" y1="228.26" x2="85.7" y2="248.63"/>
          <line class="cls-1" x1="114.21" y1="236.41" x2="93.85" y2="256.77"/>
          <line class="cls-1" x1="110.14" y1="232.33" x2="89.78" y2="252.7"/>
          <line class="cls-1" x1="118.29" y1="240.48" x2="97.92" y2="260.84"/>
        </g>
        <g>
          <line class="cls-1" x1="220.11" y1="228.26" x2="199.74" y2="207.9"/>
          <line class="cls-1" x1="211.96" y1="236.41" x2="191.6" y2="216.04"/>
          <line class="cls-1" x1="216.04" y1="232.33" x2="195.67" y2="211.97"/>
          <line class="cls-1" x1="207.89" y1="240.48" x2="187.53" y2="220.12"/>
          <line class="cls-1" x1="207.89" y1="207.9" x2="187.53" y2="228.26"/>
          <line class="cls-1" x1="216.04" y1="216.04" x2="195.67" y2="236.41"/>
          <line class="cls-1" x1="211.96" y1="211.97" x2="191.6" y2="232.33"/>
          <line class="cls-1" x1="220.11" y1="220.12" x2="199.74" y2="240.48"/>
        </g>
        <g>
          <line class="cls-1" x1="240.47" y1="248.63" x2="220.11" y2="228.26"/>
          <line class="cls-1" x1="232.33" y1="256.77" x2="211.96" y2="236.41"/>
          <line class="cls-1" x1="236.4" y1="252.7" x2="216.04" y2="232.33"/>
          <line class="cls-1" x1="228.26" y1="260.84" x2="207.89" y2="240.48"/>
          <line class="cls-1" x1="228.26" y1="228.26" x2="207.89" y2="248.63"/>
          <line class="cls-1" x1="236.4" y1="236.41" x2="216.04" y2="256.77"/>
          <line class="cls-1" x1="232.33" y1="232.33" x2="211.96" y2="252.7"/>
          <line class="cls-1" x1="240.47" y1="240.48" x2="220.11" y2="260.84"/>
        </g>
        <g>
          <line class="cls-1" x1="199.74" y1="289.36" x2="179.38" y2="268.99"/>
          <line class="cls-1" x1="191.6" y1="297.5" x2="171.23" y2="277.14"/>
          <line class="cls-1" x1="195.67" y1="293.43" x2="175.31" y2="273.06"/>
          <line class="cls-1" x1="187.53" y1="301.57" x2="167.16" y2="281.21"/>
          <line class="cls-1" x1="187.53" y1="268.99" x2="167.16" y2="289.36"/>
          <line class="cls-1" x1="195.67" y1="277.14" x2="175.31" y2="297.5"/>
          <line class="cls-1" x1="191.6" y1="273.06" x2="171.23" y2="293.43"/>
          <line class="cls-1" x1="199.74" y1="281.21" x2="179.38" y2="301.57"/>
        </g>
        <g>
          <line class="cls-1" x1="220.11" y1="268.99" x2="199.74" y2="248.63"/>
          <line class="cls-1" x1="211.96" y1="277.14" x2="191.6" y2="256.77"/>
          <line class="cls-1" x1="216.04" y1="273.06" x2="195.67" y2="252.7"/>
          <line class="cls-1" x1="207.89" y1="281.21" x2="187.53" y2="260.84"/>
          <line class="cls-1" x1="207.89" y1="248.63" x2="187.53" y2="268.99"/>
          <line class="cls-1" x1="216.04" y1="256.77" x2="195.67" y2="277.14"/>
          <line class="cls-1" x1="211.96" y1="252.7" x2="191.6" y2="273.06"/>
          <line class="cls-1" x1="220.11" y1="260.84" x2="199.74" y2="281.21"/>
        </g>
        <g>
          <line class="cls-1" x1="179.38" y1="309.72" x2="159.02" y2="289.36"/>
          <line class="cls-1" x1="171.23" y1="317.87" x2="150.87" y2="297.5"/>
          <line class="cls-1" x1="175.31" y1="313.79" x2="154.94" y2="293.43"/>
          <line class="cls-1" x1="167.16" y1="321.94" x2="146.8" y2="301.57"/>
          <line class="cls-1" x1="167.16" y1="289.36" x2="146.8" y2="309.72"/>
          <line class="cls-1" x1="175.31" y1="297.5" x2="154.94" y2="317.87"/>
          <line class="cls-1" x1="171.23" y1="293.43" x2="150.87" y2="313.79"/>
          <line class="cls-1" x1="179.38" y1="301.57" x2="159.02" y2="321.94"/>
        </g>
        <g>
          <line class="cls-1" x1="199.74" y1="248.63" x2="179.38" y2="228.26"/>
          <line class="cls-1" x1="191.6" y1="256.77" x2="171.23" y2="236.41"/>
          <line class="cls-1" x1="195.67" y1="252.7" x2="175.31" y2="232.33"/>
          <line class="cls-1" x1="187.53" y1="260.84" x2="167.16" y2="240.48"/>
          <line class="cls-1" x1="187.53" y1="228.26" x2="167.16" y2="248.63"/>
          <line class="cls-1" x1="195.67" y1="236.41" x2="175.31" y2="256.77"/>
          <line class="cls-1" x1="191.6" y1="232.33" x2="171.23" y2="252.7"/>
          <line class="cls-1" x1="199.74" y1="240.48" x2="179.38" y2="260.84"/>
        </g>
        <g>
          <line class="cls-1" x1="159.02" y1="207.9" x2="138.65" y2="187.53"/>
          <line class="cls-1" x1="150.87" y1="216.04" x2="130.5" y2="195.68"/>
          <line class="cls-1" x1="154.94" y1="211.97" x2="134.58" y2="191.6"/>
          <line class="cls-1" x1="146.8" y1="220.12" x2="126.43" y2="199.75"/>
          <line class="cls-1" x1="146.8" y1="187.53" x2="126.43" y2="207.9"/>
          <line class="cls-1" x1="154.94" y1="195.68" x2="134.58" y2="216.04"/>
          <line class="cls-1" x1="150.87" y1="191.6" x2="130.5" y2="211.97"/>
          <line class="cls-1" x1="159.02" y1="199.75" x2="138.65" y2="220.12"/>
        </g>
        <g>
          <line class="cls-1" x1="199.74" y1="207.9" x2="179.38" y2="187.53"/>
          <line class="cls-1" x1="191.6" y1="216.04" x2="171.23" y2="195.68"/>
          <line class="cls-1" x1="195.67" y1="211.97" x2="175.31" y2="191.6"/>
          <line class="cls-1" x1="187.53" y1="220.12" x2="167.16" y2="199.75"/>
          <line class="cls-1" x1="187.53" y1="187.53" x2="167.16" y2="207.9"/>
          <line class="cls-1" x1="195.67" y1="195.68" x2="175.31" y2="216.04"/>
          <line class="cls-1" x1="191.6" y1="191.6" x2="171.23" y2="211.97"/>
          <line class="cls-1" x1="199.74" y1="199.75" x2="179.38" y2="220.12"/>
        </g>
        <g>
          <line class="cls-1" x1="179.38" y1="228.26" x2="159.02" y2="207.9"/>
          <line class="cls-1" x1="171.23" y1="236.41" x2="150.87" y2="216.04"/>
          <line class="cls-1" x1="175.31" y1="232.33" x2="154.94" y2="211.97"/>
          <line class="cls-1" x1="167.16" y1="240.48" x2="146.8" y2="220.12"/>
          <line class="cls-1" x1="167.16" y1="207.9" x2="146.8" y2="228.26"/>
          <line class="cls-1" x1="175.31" y1="216.04" x2="154.94" y2="236.41"/>
          <line class="cls-1" x1="171.23" y1="211.97" x2="150.87" y2="232.33"/>
          <line class="cls-1" x1="179.38" y1="220.12" x2="159.02" y2="240.48"/>
        </g>
        <g>
          <line class="cls-1" x1="179.38" y1="187.53" x2="159.02" y2="167.17"/>
          <line class="cls-1" x1="171.23" y1="195.68" x2="150.87" y2="175.31"/>
          <line class="cls-1" x1="175.31" y1="191.6" x2="154.94" y2="171.24"/>
          <line class="cls-1" x1="167.16" y1="199.75" x2="146.8" y2="179.39"/>
          <line class="cls-1" x1="167.16" y1="167.17" x2="146.8" y2="187.53"/>
          <line class="cls-1" x1="175.31" y1="175.31" x2="154.94" y2="195.68"/>
          <line class="cls-1" x1="171.23" y1="171.24" x2="150.87" y2="191.6"/>
          <line class="cls-1" x1="179.38" y1="179.39" x2="159.02" y2="199.75"/>
        </g>
        <g>
          <line class="cls-1" x1="138.65" y1="228.26" x2="118.29" y2="207.9"/>
          <line class="cls-1" x1="130.5" y1="236.41" x2="110.14" y2="216.04"/>
          <line class="cls-1" x1="134.58" y1="232.33" x2="114.21" y2="211.97"/>
          <line class="cls-1" x1="126.43" y1="240.48" x2="106.07" y2="220.12"/>
          <line class="cls-1" x1="126.43" y1="207.9" x2="106.07" y2="228.26"/>
          <line class="cls-1" x1="134.58" y1="216.04" x2="114.21" y2="236.41"/>
          <line class="cls-1" x1="130.5" y1="211.97" x2="110.14" y2="232.33"/>
          <line class="cls-1" x1="138.65" y1="220.12" x2="118.29" y2="240.48"/>
        </g>
        <g>
          <line class="cls-1" x1="159.02" y1="248.63" x2="138.65" y2="228.26"/>
          <line class="cls-1" x1="150.87" y1="256.77" x2="130.5" y2="236.41"/>
          <line class="cls-1" x1="154.94" y1="252.7" x2="134.58" y2="232.33"/>
          <line class="cls-1" x1="146.8" y1="260.84" x2="126.43" y2="240.48"/>
          <line class="cls-1" x1="146.8" y1="228.26" x2="126.43" y2="248.63"/>
          <line class="cls-1" x1="154.94" y1="236.41" x2="134.58" y2="256.77"/>
          <line class="cls-1" x1="150.87" y1="232.33" x2="130.5" y2="252.7"/>
          <line class="cls-1" x1="159.02" y1="240.48" x2="138.65" y2="260.84"/>
        </g>
        <g>
          <line class="cls-1" x1="159.02" y1="289.36" x2="138.65" y2="268.99"/>
          <line class="cls-1" x1="150.87" y1="297.5" x2="130.5" y2="277.14"/>
          <line class="cls-1" x1="154.94" y1="293.43" x2="134.58" y2="273.06"/>
          <line class="cls-1" x1="146.8" y1="301.57" x2="126.43" y2="281.21"/>
          <line class="cls-1" x1="146.8" y1="268.99" x2="126.43" y2="289.36"/>
          <line class="cls-1" x1="154.94" y1="277.14" x2="134.58" y2="297.5"/>
          <line class="cls-1" x1="150.87" y1="273.06" x2="130.5" y2="293.43"/>
          <line class="cls-1" x1="159.02" y1="281.21" x2="138.65" y2="301.57"/>
        </g>
        <g>
          <line class="cls-1" x1="179.38" y1="268.99" x2="159.02" y2="248.63"/>
          <line class="cls-1" x1="171.23" y1="277.14" x2="150.87" y2="256.77"/>
          <line class="cls-1" x1="175.31" y1="273.06" x2="154.94" y2="252.7"/>
          <line class="cls-1" x1="167.16" y1="281.21" x2="146.8" y2="260.84"/>
          <line class="cls-1" x1="167.16" y1="248.63" x2="146.8" y2="268.99"/>
          <line class="cls-1" x1="175.31" y1="256.77" x2="154.94" y2="277.14"/>
          <line class="cls-1" x1="171.23" y1="252.7" x2="150.87" y2="273.06"/>
          <line class="cls-1" x1="179.38" y1="260.84" x2="159.02" y2="281.21"/>
        </g>
        <g>
          <line class="cls-1" x1="138.65" y1="268.99" x2="118.29" y2="248.63"/>
          <line class="cls-1" x1="130.5" y1="277.14" x2="110.14" y2="256.77"/>
          <line class="cls-1" x1="134.58" y1="273.06" x2="114.21" y2="252.7"/>
          <line class="cls-1" x1="126.43" y1="281.21" x2="106.07" y2="260.84"/>
          <line class="cls-1" x1="126.43" y1="248.63" x2="106.07" y2="268.99"/>
          <line class="cls-1" x1="134.58" y1="256.77" x2="114.21" y2="277.14"/>
          <line class="cls-1" x1="130.5" y1="252.7" x2="110.14" y2="273.06"/>
          <line class="cls-1" x1="138.65" y1="260.84" x2="118.29" y2="281.21"/>
        </g>
      </g>
    </g>
  </g>
</svg>