<?xml version="1.0" encoding="UTF-8"?>
<svg id="Layer_2" data-name="Layer 2" xmlns="http://www.w3.org/2000/svg" viewBox="0 0 115.45 115.45">
  <defs>
    <style>
      .cls-1 {
        fill: none;
        stroke: #e6e7e8;
        stroke-miterlimit: 10;
        stroke-width: .25px;
      }
    </style>
  </defs>
  <g id="Layer_1-2" data-name="Layer 1">
    <g>
      <g>
        <rect class="cls-1" x=".12" y=".12" width="115.2" height="115.2"/>
        <line class="cls-1" x1="28.92" y1=".12" x2="28.92" y2="115.32"/>
        <line class="cls-1" x1="57.72" y1=".12" x2="57.72" y2="115.32"/>
        <line class="cls-1" x1="86.52" y1=".12" x2="86.52" y2="115.32"/>
        <line class="cls-1" x1="115.32" y1="28.93" x2=".12" y2="28.93"/>
        <line class="cls-1" x1="115.32" y1="57.72" x2=".12" y2="57.72"/>
        <line class="cls-1" x1=".12" y1="86.52" x2="115.32" y2="86.52"/>
      </g>
      <g>
        <line class="cls-1" x1="92.28" y1="86.52" x2="92.28" y2="115.32"/>
        <line class="cls-1" x1="103.8" y1="86.52" x2="103.8" y2="115.32"/>
        <line class="cls-1" x1="98.04" y1="86.52" x2="98.04" y2="115.32"/>
        <line class="cls-1" x1="109.56" y1="86.52" x2="109.56" y2="115.32"/>
        <line class="cls-1" x1="86.52" y1="109.57" x2="115.32" y2="109.57"/>
        <line class="cls-1" x1="86.52" y1="98.05" x2="115.32" y2="98.05"/>
        <line class="cls-1" x1="86.52" y1="103.8" x2="115.32" y2="103.8"/>
        <line class="cls-1" x1="86.52" y1="92.28" x2="115.32" y2="92.28"/>
      </g>
      <g>
        <line class="cls-1" x1="5.88" y1="28.92" x2="5.88" y2="57.72"/>
        <line class="cls-1" x1="17.4" y1="28.92" x2="17.4" y2="57.72"/>
        <line class="cls-1" x1="11.64" y1="28.92" x2="11.64" y2="57.72"/>
        <line class="cls-1" x1="23.16" y1="28.92" x2="23.16" y2="57.72"/>
        <line class="cls-1" x1=".12" y1="51.96" x2="28.92" y2="51.96"/>
        <line class="cls-1" x1=".12" y1="40.44" x2="28.92" y2="40.44"/>
        <line class="cls-1" x1=".12" y1="46.2" x2="28.92" y2="46.2"/>
        <line class="cls-1" x1=".12" y1="34.68" x2="28.92" y2="34.68"/>
      </g>
      <g>
        <line class="cls-1" x1="5.88" y1=".12" x2="5.88" y2="28.93"/>
        <line class="cls-1" x1="17.4" y1=".12" x2="17.4" y2="28.92"/>
        <line class="cls-1" x1="11.64" y1=".12" x2="11.64" y2="28.92"/>
        <line class="cls-1" x1="23.16" y1=".12" x2="23.16" y2="28.92"/>
        <line class="cls-1" x1=".12" y1="23.16" x2="28.92" y2="23.16"/>
        <line class="cls-1" x1=".12" y1="11.64" x2="28.92" y2="11.64"/>
        <line class="cls-1" x1=".12" y1="17.4" x2="28.92" y2="17.4"/>
        <line class="cls-1" x1=".12" y1="5.88" x2="28.92" y2="5.88"/>
      </g>
      <g>
        <line class="cls-1" x1="63.48" y1=".13" x2="63.48" y2="28.93"/>
        <line class="cls-1" x1="75" y1=".12" x2="75" y2="28.93"/>
        <line class="cls-1" x1="69.24" y1=".12" x2="69.24" y2="28.93"/>
        <line class="cls-1" x1="80.76" y1=".12" x2="80.76" y2="28.93"/>
        <line class="cls-1" x1="57.72" y1="23.16" x2="86.52" y2="23.16"/>
        <line class="cls-1" x1="57.72" y1="11.65" x2="86.52" y2="11.65"/>
        <line class="cls-1" x1="57.72" y1="17.41" x2="86.52" y2="17.41"/>
        <line class="cls-1" x1="57.72" y1="5.89" x2="86.52" y2="5.89"/>
      </g>
      <g>
        <line class="cls-1" x1="34.68" y1=".13" x2="34.68" y2="28.93"/>
        <line class="cls-1" x1="46.2" y1=".12" x2="46.2" y2="28.93"/>
        <line class="cls-1" x1="40.44" y1=".12" x2="40.44" y2="28.93"/>
        <line class="cls-1" x1="51.96" y1=".12" x2="51.96" y2="28.93"/>
        <line class="cls-1" x1="28.92" y1="23.16" x2="57.72" y2="23.16"/>
        <line class="cls-1" x1="28.92" y1="11.65" x2="57.72" y2="11.65"/>
        <line class="cls-1" x1="28.92" y1="17.41" x2="57.72" y2="17.41"/>
        <line class="cls-1" x1="28.92" y1="5.89" x2="57.72" y2="5.89"/>
      </g>
      <g>
        <line class="cls-1" x1="92.28" y1=".12" x2="92.28" y2="28.93"/>
        <line class="cls-1" x1="103.8" y1=".12" x2="103.8" y2="28.92"/>
        <line class="cls-1" x1="98.04" y1=".12" x2="98.04" y2="28.92"/>
        <line class="cls-1" x1="109.56" y1=".12" x2="109.56" y2="28.92"/>
        <line class="cls-1" x1="86.52" y1="23.16" x2="115.32" y2="23.16"/>
        <line class="cls-1" x1="86.52" y1="11.64" x2="115.32" y2="11.64"/>
        <line class="cls-1" x1="86.52" y1="17.4" x2="115.32" y2="17.4"/>
        <line class="cls-1" x1="86.52" y1="5.88" x2="115.32" y2="5.88"/>
      </g>
      <g>
        <line class="cls-1" x1="34.68" y1="28.93" x2="34.68" y2="57.73"/>
        <line class="cls-1" x1="46.2" y1="28.93" x2="46.2" y2="57.73"/>
        <line class="cls-1" x1="40.44" y1="28.93" x2="40.44" y2="57.73"/>
        <line class="cls-1" x1="51.96" y1="28.93" x2="51.96" y2="57.73"/>
        <line class="cls-1" x1="28.92" y1="51.97" x2="57.72" y2="51.97"/>
        <line class="cls-1" x1="28.92" y1="40.45" x2="57.72" y2="40.45"/>
        <line class="cls-1" x1="28.92" y1="46.21" x2="57.72" y2="46.21"/>
        <line class="cls-1" x1="28.92" y1="34.69" x2="57.72" y2="34.69"/>
      </g>
      <g>
        <line class="cls-1" x1="34.68" y1="86.52" x2="34.68" y2="115.32"/>
        <line class="cls-1" x1="46.2" y1="86.52" x2="46.2" y2="115.32"/>
        <line class="cls-1" x1="40.44" y1="86.52" x2="40.44" y2="115.32"/>
        <line class="cls-1" x1="51.96" y1="86.52" x2="51.96" y2="115.32"/>
        <line class="cls-1" x1="28.92" y1="109.57" x2="57.72" y2="109.57"/>
        <line class="cls-1" x1="28.92" y1="98.05" x2="57.72" y2="98.05"/>
        <line class="cls-1" x1="28.92" y1="103.8" x2="57.72" y2="103.8"/>
        <line class="cls-1" x1="28.92" y1="92.28" x2="57.72" y2="92.28"/>
      </g>
      <g>
        <line class="cls-1" x1="5.88" y1="57.72" x2="5.88" y2="86.52"/>
        <line class="cls-1" x1="17.4" y1="57.72" x2="17.4" y2="86.52"/>
        <line class="cls-1" x1="11.64" y1="57.72" x2="11.64" y2="86.52"/>
        <line class="cls-1" x1="23.16" y1="57.72" x2="23.16" y2="86.52"/>
        <line class="cls-1" x1=".12" y1="80.76" x2="28.92" y2="80.76"/>
        <line class="cls-1" x1=".12" y1="69.24" x2="28.92" y2="69.24"/>
        <line class="cls-1" x1=".12" y1="75" x2="28.92" y2="75"/>
        <line class="cls-1" x1=".12" y1="63.48" x2="28.92" y2="63.48"/>
      </g>
      <g>
        <line class="cls-1" x1="34.68" y1="57.72" x2="34.68" y2="86.52"/>
        <line class="cls-1" x1="46.2" y1="57.72" x2="46.2" y2="86.52"/>
        <line class="cls-1" x1="40.44" y1="57.72" x2="40.44" y2="86.52"/>
        <line class="cls-1" x1="51.96" y1="57.72" x2="51.96" y2="86.52"/>
        <line class="cls-1" x1="28.92" y1="80.76" x2="57.72" y2="80.76"/>
        <line class="cls-1" x1="28.92" y1="69.24" x2="57.72" y2="69.24"/>
        <line class="cls-1" x1="28.92" y1="75" x2="57.72" y2="75"/>
        <line class="cls-1" x1="28.92" y1="63.48" x2="57.72" y2="63.48"/>
      </g>
      <g>
        <line class="cls-1" x1="5.88" y1="86.52" x2="5.88" y2="115.32"/>
        <line class="cls-1" x1="17.4" y1="86.52" x2="17.4" y2="115.32"/>
        <line class="cls-1" x1="11.64" y1="86.52" x2="11.64" y2="115.32"/>
        <line class="cls-1" x1="23.16" y1="86.52" x2="23.16" y2="115.32"/>
        <line class="cls-1" x1=".12" y1="109.57" x2="28.92" y2="109.57"/>
        <line class="cls-1" x1=".12" y1="98.05" x2="28.92" y2="98.05"/>
        <line class="cls-1" x1=".12" y1="103.8" x2="28.92" y2="103.8"/>
        <line class="cls-1" x1=".12" y1="92.28" x2="28.92" y2="92.28"/>
      </g>
      <g>
        <line class="cls-1" x1="63.48" y1="86.53" x2="63.48" y2="115.33"/>
        <line class="cls-1" x1="75" y1="86.52" x2="75" y2="115.32"/>
        <line class="cls-1" x1="69.24" y1="86.52" x2="69.24" y2="115.32"/>
        <line class="cls-1" x1="80.76" y1="86.52" x2="80.76" y2="115.32"/>
        <line class="cls-1" x1="57.72" y1="109.57" x2="86.52" y2="109.57"/>
        <line class="cls-1" x1="57.72" y1="98.05" x2="86.52" y2="98.05"/>
        <line class="cls-1" x1="57.72" y1="103.81" x2="86.52" y2="103.81"/>
        <line class="cls-1" x1="57.72" y1="92.29" x2="86.52" y2="92.29"/>
      </g>
      <g>
        <line class="cls-1" x1="63.48" y1="57.73" x2="63.48" y2="86.53"/>
        <line class="cls-1" x1="75" y1="57.72" x2="75" y2="86.52"/>
        <line class="cls-1" x1="69.24" y1="57.72" x2="69.24" y2="86.52"/>
        <line class="cls-1" x1="80.76" y1="57.72" x2="80.76" y2="86.52"/>
        <line class="cls-1" x1="57.72" y1="80.76" x2="86.52" y2="80.76"/>
        <line class="cls-1" x1="57.72" y1="69.24" x2="86.52" y2="69.24"/>
        <line class="cls-1" x1="57.72" y1="75.01" x2="86.52" y2="75.01"/>
        <line class="cls-1" x1="57.72" y1="63.48" x2="86.52" y2="63.48"/>
      </g>
      <g>
        <line class="cls-1" x1="92.28" y1="28.92" x2="92.28" y2="57.72"/>
        <line class="cls-1" x1="103.8" y1="28.92" x2="103.8" y2="57.72"/>
        <line class="cls-1" x1="98.04" y1="28.92" x2="98.04" y2="57.72"/>
        <line class="cls-1" x1="109.56" y1="28.92" x2="109.56" y2="57.72"/>
        <line class="cls-1" x1="86.52" y1="51.96" x2="115.32" y2="51.96"/>
        <line class="cls-1" x1="86.52" y1="40.44" x2="115.32" y2="40.44"/>
        <line class="cls-1" x1="86.52" y1="46.2" x2="115.32" y2="46.2"/>
        <line class="cls-1" x1="86.52" y1="34.68" x2="115.32" y2="34.68"/>
      </g>
      <g>
        <line class="cls-1" x1="63.48" y1="28.92" x2="63.48" y2="57.72"/>
        <line class="cls-1" x1="75" y1="28.92" x2="75" y2="57.72"/>
        <line class="cls-1" x1="69.24" y1="28.92" x2="69.24" y2="57.72"/>
        <line class="cls-1" x1="80.76" y1="28.92" x2="80.76" y2="57.72"/>
        <line class="cls-1" x1="57.72" y1="51.96" x2="86.52" y2="51.96"/>
        <line class="cls-1" x1="57.72" y1="40.44" x2="86.52" y2="40.44"/>
        <line class="cls-1" x1="57.72" y1="46.2" x2="86.52" y2="46.2"/>
        <line class="cls-1" x1="57.72" y1="34.68" x2="86.52" y2="34.68"/>
      </g>
      <g>
        <line class="cls-1" x1="92.28" y1="57.72" x2="92.28" y2="86.52"/>
        <line class="cls-1" x1="103.8" y1="57.72" x2="103.8" y2="86.52"/>
        <line class="cls-1" x1="98.04" y1="57.72" x2="98.04" y2="86.52"/>
        <line class="cls-1" x1="109.56" y1="57.72" x2="109.56" y2="86.52"/>
        <line class="cls-1" x1="86.52" y1="80.76" x2="115.32" y2="80.76"/>
        <line class="cls-1" x1="86.52" y1="69.24" x2="115.32" y2="69.24"/>
        <line class="cls-1" x1="86.52" y1="75" x2="115.32" y2="75"/>
        <line class="cls-1" x1="86.52" y1="63.48" x2="115.32" y2="63.48"/>
      </g>
    </g>
  </g>
</svg>