<?xml version="1.0" encoding="UTF-8"?>
<svg id="Layer_2" data-name="Layer 2" xmlns="http://www.w3.org/2000/svg" viewBox="0 0 230.65 230.81">
  <defs>
    <style>
      .cls-1 {
        fill: none;
        stroke: #e6e7e8;
        stroke-miterlimit: 10;
        stroke-width: .25px;
      }
    </style>
  </defs>
  <g id="Layer_1-2" data-name="Layer 1">
    <g>
      <g>
        <g>
          <rect class="cls-1" x=".12" y=".13" width="115.2" height="115.2"/>
          <line class="cls-1" x1="28.92" y1=".13" x2="28.92" y2="115.33"/>
          <line class="cls-1" x1="57.72" y1=".13" x2="57.72" y2="115.33"/>
          <line class="cls-1" x1="86.52" y1=".13" x2="86.52" y2="115.33"/>
          <line class="cls-1" x1="115.32" y1="28.93" x2=".12" y2="28.93"/>
          <line class="cls-1" x1="115.32" y1="57.73" x2=".12" y2="57.73"/>
          <line class="cls-1" x1=".12" y1="86.53" x2="115.32" y2="86.53"/>
        </g>
        <g>
          <line class="cls-1" x1="92.28" y1="86.53" x2="92.28" y2="115.33"/>
          <line class="cls-1" x1="103.8" y1="86.53" x2="103.8" y2="115.33"/>
          <line class="cls-1" x1="98.04" y1="86.53" x2="98.04" y2="115.33"/>
          <line class="cls-1" x1="109.56" y1="86.53" x2="109.56" y2="115.33"/>
          <line class="cls-1" x1="86.52" y1="109.57" x2="115.32" y2="109.57"/>
          <line class="cls-1" x1="86.52" y1="98.05" x2="115.32" y2="98.05"/>
          <line class="cls-1" x1="86.52" y1="103.81" x2="115.32" y2="103.81"/>
          <line class="cls-1" x1="86.52" y1="92.29" x2="115.32" y2="92.29"/>
        </g>
        <g>
          <line class="cls-1" x1="5.88" y1="28.93" x2="5.88" y2="57.73"/>
          <line class="cls-1" x1="17.4" y1="28.93" x2="17.4" y2="57.73"/>
          <line class="cls-1" x1="11.64" y1="28.93" x2="11.64" y2="57.73"/>
          <line class="cls-1" x1="23.16" y1="28.93" x2="23.16" y2="57.73"/>
          <line class="cls-1" x1=".12" y1="51.97" x2="28.92" y2="51.97"/>
          <line class="cls-1" x1=".12" y1="40.45" x2="28.92" y2="40.45"/>
          <line class="cls-1" x1=".12" y1="46.21" x2="28.92" y2="46.21"/>
          <line class="cls-1" x1=".12" y1="34.69" x2="28.92" y2="34.69"/>
        </g>
        <g>
          <line class="cls-1" x1="5.88" y1=".13" x2="5.88" y2="28.93"/>
          <line class="cls-1" x1="17.4" y1=".13" x2="17.4" y2="28.93"/>
          <line class="cls-1" x1="11.64" y1=".13" x2="11.64" y2="28.93"/>
          <line class="cls-1" x1="23.16" y1=".13" x2="23.16" y2="28.93"/>
          <line class="cls-1" x1=".12" y1="23.17" x2="28.92" y2="23.17"/>
          <line class="cls-1" x1=".12" y1="11.65" x2="28.92" y2="11.65"/>
          <line class="cls-1" x1=".12" y1="17.41" x2="28.92" y2="17.41"/>
          <line class="cls-1" x1=".12" y1="5.89" x2="28.92" y2="5.89"/>
        </g>
        <g>
          <line class="cls-1" x1="63.48" y1=".13" x2="63.48" y2="28.93"/>
          <line class="cls-1" x1="75" y1=".13" x2="75" y2="28.93"/>
          <line class="cls-1" x1="69.24" y1=".13" x2="69.24" y2="28.93"/>
          <line class="cls-1" x1="80.76" y1=".13" x2="80.76" y2="28.93"/>
          <line class="cls-1" x1="57.72" y1="23.17" x2="86.52" y2="23.17"/>
          <line class="cls-1" x1="57.72" y1="11.65" x2="86.52" y2="11.65"/>
          <line class="cls-1" x1="57.72" y1="17.41" x2="86.52" y2="17.41"/>
          <line class="cls-1" x1="57.72" y1="5.89" x2="86.52" y2="5.89"/>
        </g>
        <g>
          <line class="cls-1" x1="34.68" y1=".13" x2="34.68" y2="28.93"/>
          <line class="cls-1" x1="46.2" y1=".13" x2="46.2" y2="28.93"/>
          <line class="cls-1" x1="40.44" y1=".13" x2="40.44" y2="28.93"/>
          <line class="cls-1" x1="51.96" y1=".13" x2="51.96" y2="28.93"/>
          <line class="cls-1" x1="28.92" y1="23.17" x2="57.72" y2="23.17"/>
          <line class="cls-1" x1="28.92" y1="11.65" x2="57.72" y2="11.65"/>
          <line class="cls-1" x1="28.92" y1="17.41" x2="57.72" y2="17.41"/>
          <line class="cls-1" x1="28.92" y1="5.89" x2="57.72" y2="5.89"/>
        </g>
        <g>
          <line class="cls-1" x1="92.28" y1=".13" x2="92.28" y2="28.93"/>
          <line class="cls-1" x1="103.8" y1=".13" x2="103.8" y2="28.93"/>
          <line class="cls-1" x1="98.04" y1=".13" x2="98.04" y2="28.93"/>
          <line class="cls-1" x1="109.56" y1=".13" x2="109.56" y2="28.93"/>
          <line class="cls-1" x1="86.52" y1="23.17" x2="115.32" y2="23.17"/>
          <line class="cls-1" x1="86.52" y1="11.65" x2="115.32" y2="11.65"/>
          <line class="cls-1" x1="86.52" y1="17.41" x2="115.32" y2="17.41"/>
          <line class="cls-1" x1="86.52" y1="5.89" x2="115.32" y2="5.89"/>
        </g>
        <g>
          <line class="cls-1" x1="34.68" y1="28.93" x2="34.68" y2="57.73"/>
          <line class="cls-1" x1="46.2" y1="28.93" x2="46.2" y2="57.73"/>
          <line class="cls-1" x1="40.44" y1="28.93" x2="40.44" y2="57.73"/>
          <line class="cls-1" x1="51.96" y1="28.93" x2="51.96" y2="57.73"/>
          <line class="cls-1" x1="28.92" y1="51.97" x2="57.72" y2="51.97"/>
          <line class="cls-1" x1="28.92" y1="40.45" x2="57.72" y2="40.45"/>
          <line class="cls-1" x1="28.92" y1="46.21" x2="57.72" y2="46.21"/>
          <line class="cls-1" x1="28.92" y1="34.69" x2="57.72" y2="34.69"/>
        </g>
        <g>
          <line class="cls-1" x1="34.68" y1="86.53" x2="34.68" y2="115.33"/>
          <line class="cls-1" x1="46.2" y1="86.53" x2="46.2" y2="115.33"/>
          <line class="cls-1" x1="40.44" y1="86.53" x2="40.44" y2="115.33"/>
          <line class="cls-1" x1="51.96" y1="86.53" x2="51.96" y2="115.33"/>
          <line class="cls-1" x1="28.92" y1="109.57" x2="57.72" y2="109.57"/>
          <line class="cls-1" x1="28.92" y1="98.05" x2="57.72" y2="98.05"/>
          <line class="cls-1" x1="28.92" y1="103.81" x2="57.72" y2="103.81"/>
          <line class="cls-1" x1="28.92" y1="92.29" x2="57.72" y2="92.29"/>
        </g>
        <g>
          <line class="cls-1" x1="5.88" y1="57.73" x2="5.88" y2="86.53"/>
          <line class="cls-1" x1="17.4" y1="57.73" x2="17.4" y2="86.53"/>
          <line class="cls-1" x1="11.64" y1="57.73" x2="11.64" y2="86.53"/>
          <line class="cls-1" x1="23.16" y1="57.73" x2="23.16" y2="86.53"/>
          <line class="cls-1" x1=".12" y1="80.77" x2="28.92" y2="80.77"/>
          <line class="cls-1" x1=".12" y1="69.25" x2="28.92" y2="69.25"/>
          <line class="cls-1" x1=".12" y1="75.01" x2="28.92" y2="75.01"/>
          <line class="cls-1" x1=".12" y1="63.49" x2="28.92" y2="63.49"/>
        </g>
        <g>
          <line class="cls-1" x1="34.68" y1="57.73" x2="34.68" y2="86.53"/>
          <line class="cls-1" x1="46.2" y1="57.73" x2="46.2" y2="86.53"/>
          <line class="cls-1" x1="40.44" y1="57.73" x2="40.44" y2="86.53"/>
          <line class="cls-1" x1="51.96" y1="57.73" x2="51.96" y2="86.53"/>
          <line class="cls-1" x1="28.92" y1="80.77" x2="57.72" y2="80.77"/>
          <line class="cls-1" x1="28.92" y1="69.25" x2="57.72" y2="69.25"/>
          <line class="cls-1" x1="28.92" y1="75.01" x2="57.72" y2="75.01"/>
          <line class="cls-1" x1="28.92" y1="63.49" x2="57.72" y2="63.49"/>
        </g>
        <g>
          <line class="cls-1" x1="5.88" y1="86.53" x2="5.88" y2="115.33"/>
          <line class="cls-1" x1="17.4" y1="86.53" x2="17.4" y2="115.33"/>
          <line class="cls-1" x1="11.64" y1="86.53" x2="11.64" y2="115.33"/>
          <line class="cls-1" x1="23.16" y1="86.53" x2="23.16" y2="115.33"/>
          <line class="cls-1" x1=".12" y1="109.57" x2="28.92" y2="109.57"/>
          <line class="cls-1" x1=".12" y1="98.05" x2="28.92" y2="98.05"/>
          <line class="cls-1" x1=".12" y1="103.81" x2="28.92" y2="103.81"/>
          <line class="cls-1" x1=".12" y1="92.29" x2="28.92" y2="92.29"/>
        </g>
        <g>
          <line class="cls-1" x1="63.48" y1="86.53" x2="63.48" y2="115.33"/>
          <line class="cls-1" x1="75" y1="86.53" x2="75" y2="115.33"/>
          <line class="cls-1" x1="69.24" y1="86.53" x2="69.24" y2="115.33"/>
          <line class="cls-1" x1="80.76" y1="86.53" x2="80.76" y2="115.33"/>
          <line class="cls-1" x1="57.72" y1="109.57" x2="86.52" y2="109.57"/>
          <line class="cls-1" x1="57.72" y1="98.05" x2="86.52" y2="98.05"/>
          <line class="cls-1" x1="57.72" y1="103.81" x2="86.52" y2="103.81"/>
          <line class="cls-1" x1="57.72" y1="92.29" x2="86.52" y2="92.29"/>
        </g>
        <g>
          <line class="cls-1" x1="63.48" y1="57.73" x2="63.48" y2="86.53"/>
          <line class="cls-1" x1="75" y1="57.73" x2="75" y2="86.53"/>
          <line class="cls-1" x1="69.24" y1="57.73" x2="69.24" y2="86.53"/>
          <line class="cls-1" x1="80.76" y1="57.73" x2="80.76" y2="86.53"/>
          <line class="cls-1" x1="57.72" y1="80.77" x2="86.52" y2="80.77"/>
          <line class="cls-1" x1="57.72" y1="69.25" x2="86.52" y2="69.25"/>
          <line class="cls-1" x1="57.72" y1="75.01" x2="86.52" y2="75.01"/>
          <line class="cls-1" x1="57.72" y1="63.49" x2="86.52" y2="63.49"/>
        </g>
        <g>
          <line class="cls-1" x1="92.28" y1="28.93" x2="92.28" y2="57.73"/>
          <line class="cls-1" x1="103.8" y1="28.93" x2="103.8" y2="57.73"/>
          <line class="cls-1" x1="98.04" y1="28.93" x2="98.04" y2="57.73"/>
          <line class="cls-1" x1="109.56" y1="28.93" x2="109.56" y2="57.73"/>
          <line class="cls-1" x1="86.52" y1="51.97" x2="115.32" y2="51.97"/>
          <line class="cls-1" x1="86.52" y1="40.45" x2="115.32" y2="40.45"/>
          <line class="cls-1" x1="86.52" y1="46.21" x2="115.32" y2="46.21"/>
          <line class="cls-1" x1="86.52" y1="34.69" x2="115.32" y2="34.69"/>
        </g>
        <g>
          <line class="cls-1" x1="63.48" y1="28.93" x2="63.48" y2="57.73"/>
          <line class="cls-1" x1="75" y1="28.93" x2="75" y2="57.73"/>
          <line class="cls-1" x1="69.24" y1="28.93" x2="69.24" y2="57.73"/>
          <line class="cls-1" x1="80.76" y1="28.93" x2="80.76" y2="57.73"/>
          <line class="cls-1" x1="57.72" y1="51.97" x2="86.52" y2="51.97"/>
          <line class="cls-1" x1="57.72" y1="40.45" x2="86.52" y2="40.45"/>
          <line class="cls-1" x1="57.72" y1="46.21" x2="86.52" y2="46.21"/>
          <line class="cls-1" x1="57.72" y1="34.69" x2="86.52" y2="34.69"/>
        </g>
        <g>
          <line class="cls-1" x1="92.28" y1="57.73" x2="92.28" y2="86.53"/>
          <line class="cls-1" x1="103.8" y1="57.73" x2="103.8" y2="86.53"/>
          <line class="cls-1" x1="98.04" y1="57.73" x2="98.04" y2="86.53"/>
          <line class="cls-1" x1="109.56" y1="57.73" x2="109.56" y2="86.53"/>
          <line class="cls-1" x1="86.52" y1="80.77" x2="115.32" y2="80.77"/>
          <line class="cls-1" x1="86.52" y1="69.25" x2="115.32" y2="69.25"/>
          <line class="cls-1" x1="86.52" y1="75.01" x2="115.32" y2="75.01"/>
          <line class="cls-1" x1="86.52" y1="63.49" x2="115.32" y2="63.49"/>
        </g>
      </g>
      <g>
        <polyline class="cls-1" points="230.52 115.32 230.52 .12 115.32 .13"/>
        <line class="cls-1" x1="144.12" y1=".12" x2="144.12" y2="115.32"/>
        <line class="cls-1" x1="172.92" y1=".12" x2="172.92" y2="115.32"/>
        <line class="cls-1" x1="201.72" y1=".12" x2="201.72" y2="115.32"/>
        <line class="cls-1" x1="230.52" y1="28.93" x2="115.32" y2="28.93"/>
        <line class="cls-1" x1="230.52" y1="57.72" x2="115.32" y2="57.72"/>
        <line class="cls-1" x1="115.32" y1="86.53" x2="230.52" y2="86.53"/>
        <g>
          <line class="cls-1" x1="207.48" y1="86.53" x2="207.48" y2="115.32"/>
          <line class="cls-1" x1="219" y1="86.52" x2="219" y2="115.32"/>
          <line class="cls-1" x1="213.24" y1="86.52" x2="213.24" y2="115.32"/>
          <line class="cls-1" x1="224.76" y1="86.52" x2="224.76" y2="115.32"/>
          <line class="cls-1" x1="201.72" y1="109.57" x2="230.52" y2="109.57"/>
          <line class="cls-1" x1="201.72" y1="98.05" x2="230.52" y2="98.05"/>
          <line class="cls-1" x1="201.72" y1="103.8" x2="230.52" y2="103.8"/>
          <line class="cls-1" x1="201.72" y1="92.28" x2="230.52" y2="92.28"/>
        </g>
        <g>
          <line class="cls-1" x1="121.08" y1="28.92" x2="121.08" y2="57.72"/>
          <line class="cls-1" x1="132.6" y1="28.92" x2="132.6" y2="57.72"/>
          <line class="cls-1" x1="126.84" y1="28.92" x2="126.84" y2="57.72"/>
          <line class="cls-1" x1="138.36" y1="28.92" x2="138.36" y2="57.72"/>
          <line class="cls-1" x1="115.32" y1="51.96" x2="144.12" y2="51.96"/>
          <line class="cls-1" x1="115.32" y1="40.44" x2="144.12" y2="40.44"/>
          <line class="cls-1" x1="115.32" y1="46.2" x2="144.12" y2="46.2"/>
          <line class="cls-1" x1="115.32" y1="34.68" x2="144.12" y2="34.68"/>
        </g>
        <g>
          <line class="cls-1" x1="121.08" y1=".12" x2="121.08" y2="28.93"/>
          <line class="cls-1" x1="132.6" y1=".12" x2="132.6" y2="28.92"/>
          <line class="cls-1" x1="126.84" y1=".12" x2="126.84" y2="28.92"/>
          <line class="cls-1" x1="138.36" y1=".12" x2="138.36" y2="28.92"/>
          <line class="cls-1" x1="115.32" y1="23.16" x2="144.12" y2="23.16"/>
          <line class="cls-1" x1="115.32" y1="11.64" x2="144.12" y2="11.64"/>
          <line class="cls-1" x1="115.32" y1="17.4" x2="144.12" y2="17.4"/>
          <line class="cls-1" x1="115.32" y1="5.88" x2="144.12" y2="5.88"/>
        </g>
        <g>
          <line class="cls-1" x1="178.68" y1=".13" x2="178.68" y2="28.93"/>
          <line class="cls-1" x1="190.2" y1=".12" x2="190.2" y2="28.93"/>
          <line class="cls-1" x1="184.44" y1=".12" x2="184.44" y2="28.93"/>
          <line class="cls-1" x1="195.96" y1=".12" x2="195.96" y2="28.93"/>
          <line class="cls-1" x1="172.92" y1="23.16" x2="201.72" y2="23.16"/>
          <line class="cls-1" x1="172.92" y1="11.65" x2="201.72" y2="11.65"/>
          <line class="cls-1" x1="172.92" y1="17.41" x2="201.72" y2="17.41"/>
          <line class="cls-1" x1="172.92" y1="5.89" x2="201.72" y2="5.89"/>
        </g>
        <g>
          <line class="cls-1" x1="149.88" y1=".13" x2="149.88" y2="28.93"/>
          <line class="cls-1" x1="161.4" y1=".12" x2="161.4" y2="28.93"/>
          <line class="cls-1" x1="155.64" y1=".12" x2="155.64" y2="28.93"/>
          <line class="cls-1" x1="167.16" y1=".12" x2="167.16" y2="28.93"/>
          <line class="cls-1" x1="144.12" y1="23.16" x2="172.92" y2="23.16"/>
          <line class="cls-1" x1="144.12" y1="11.65" x2="172.92" y2="11.65"/>
          <line class="cls-1" x1="144.12" y1="17.41" x2="172.92" y2="17.41"/>
          <line class="cls-1" x1="144.12" y1="5.89" x2="172.92" y2="5.89"/>
        </g>
        <g>
          <line class="cls-1" x1="207.48" y1=".12" x2="207.48" y2="28.93"/>
          <line class="cls-1" x1="219" y1=".12" x2="219" y2="28.92"/>
          <line class="cls-1" x1="213.24" y1=".12" x2="213.24" y2="28.92"/>
          <line class="cls-1" x1="224.76" y1=".12" x2="224.76" y2="28.92"/>
          <line class="cls-1" x1="201.72" y1="23.16" x2="230.52" y2="23.16"/>
          <line class="cls-1" x1="201.72" y1="11.64" x2="230.52" y2="11.64"/>
          <line class="cls-1" x1="201.72" y1="17.4" x2="230.52" y2="17.4"/>
          <line class="cls-1" x1="201.72" y1="5.88" x2="230.52" y2="5.88"/>
        </g>
        <g>
          <line class="cls-1" x1="149.88" y1="28.93" x2="149.88" y2="57.73"/>
          <line class="cls-1" x1="161.4" y1="28.93" x2="161.4" y2="57.73"/>
          <line class="cls-1" x1="155.64" y1="28.93" x2="155.64" y2="57.73"/>
          <line class="cls-1" x1="167.16" y1="28.93" x2="167.16" y2="57.73"/>
          <line class="cls-1" x1="144.12" y1="51.96" x2="172.92" y2="51.96"/>
          <line class="cls-1" x1="144.12" y1="40.45" x2="172.92" y2="40.45"/>
          <line class="cls-1" x1="144.12" y1="46.21" x2="172.92" y2="46.21"/>
          <line class="cls-1" x1="144.12" y1="34.69" x2="172.92" y2="34.69"/>
        </g>
        <g>
          <line class="cls-1" x1="149.88" y1="86.53" x2="149.88" y2="115.32"/>
          <line class="cls-1" x1="161.4" y1="86.52" x2="161.4" y2="115.32"/>
          <line class="cls-1" x1="155.64" y1="86.52" x2="155.64" y2="115.32"/>
          <line class="cls-1" x1="167.16" y1="86.52" x2="167.16" y2="115.32"/>
          <line class="cls-1" x1="144.12" y1="109.57" x2="172.92" y2="109.57"/>
          <line class="cls-1" x1="144.12" y1="98.05" x2="172.92" y2="98.05"/>
          <line class="cls-1" x1="144.12" y1="103.8" x2="172.92" y2="103.8"/>
          <line class="cls-1" x1="144.12" y1="92.28" x2="172.92" y2="92.28"/>
        </g>
        <g>
          <line class="cls-1" x1="121.08" y1="57.72" x2="121.08" y2="86.53"/>
          <line class="cls-1" x1="132.6" y1="57.72" x2="132.6" y2="86.52"/>
          <line class="cls-1" x1="126.84" y1="57.72" x2="126.84" y2="86.52"/>
          <line class="cls-1" x1="138.36" y1="57.72" x2="138.36" y2="86.52"/>
          <line class="cls-1" x1="115.32" y1="80.76" x2="144.12" y2="80.76"/>
          <line class="cls-1" x1="115.32" y1="69.24" x2="144.12" y2="69.24"/>
          <line class="cls-1" x1="115.32" y1="75.01" x2="144.12" y2="75.01"/>
          <line class="cls-1" x1="115.32" y1="63.48" x2="144.12" y2="63.48"/>
        </g>
        <g>
          <line class="cls-1" x1="149.88" y1="57.72" x2="149.88" y2="86.53"/>
          <line class="cls-1" x1="161.4" y1="57.72" x2="161.4" y2="86.52"/>
          <line class="cls-1" x1="155.64" y1="57.72" x2="155.64" y2="86.52"/>
          <line class="cls-1" x1="167.16" y1="57.72" x2="167.16" y2="86.52"/>
          <line class="cls-1" x1="144.12" y1="80.76" x2="172.92" y2="80.76"/>
          <line class="cls-1" x1="144.12" y1="69.24" x2="172.92" y2="69.24"/>
          <line class="cls-1" x1="144.12" y1="75.01" x2="172.92" y2="75.01"/>
          <line class="cls-1" x1="144.12" y1="63.48" x2="172.92" y2="63.48"/>
        </g>
        <g>
          <line class="cls-1" x1="121.08" y1="86.53" x2="121.08" y2="115.32"/>
          <line class="cls-1" x1="132.6" y1="86.52" x2="132.6" y2="115.32"/>
          <line class="cls-1" x1="126.84" y1="86.52" x2="126.84" y2="115.32"/>
          <line class="cls-1" x1="138.36" y1="86.52" x2="138.36" y2="115.32"/>
          <line class="cls-1" x1="115.32" y1="109.57" x2="144.12" y2="109.57"/>
          <line class="cls-1" x1="115.32" y1="98.05" x2="144.12" y2="98.05"/>
          <line class="cls-1" x1="115.32" y1="103.8" x2="144.12" y2="103.8"/>
          <line class="cls-1" x1="115.32" y1="92.28" x2="144.12" y2="92.28"/>
        </g>
        <g>
          <line class="cls-1" x1="178.68" y1="86.53" x2="178.68" y2="115.33"/>
          <line class="cls-1" x1="190.2" y1="86.53" x2="190.2" y2="115.32"/>
          <line class="cls-1" x1="184.44" y1="86.53" x2="184.44" y2="115.32"/>
          <line class="cls-1" x1="195.96" y1="86.53" x2="195.96" y2="115.32"/>
          <line class="cls-1" x1="172.92" y1="109.57" x2="201.72" y2="109.57"/>
          <line class="cls-1" x1="172.92" y1="98.05" x2="201.72" y2="98.05"/>
          <line class="cls-1" x1="172.92" y1="103.81" x2="201.72" y2="103.81"/>
          <line class="cls-1" x1="172.92" y1="92.29" x2="201.72" y2="92.29"/>
        </g>
        <g>
          <line class="cls-1" x1="178.68" y1="57.73" x2="178.68" y2="86.53"/>
          <line class="cls-1" x1="190.2" y1="57.72" x2="190.2" y2="86.53"/>
          <line class="cls-1" x1="184.44" y1="57.72" x2="184.44" y2="86.53"/>
          <line class="cls-1" x1="195.96" y1="57.72" x2="195.96" y2="86.53"/>
          <line class="cls-1" x1="172.92" y1="80.76" x2="201.72" y2="80.76"/>
          <line class="cls-1" x1="172.92" y1="69.24" x2="201.72" y2="69.24"/>
          <line class="cls-1" x1="172.92" y1="75.01" x2="201.72" y2="75.01"/>
          <line class="cls-1" x1="172.92" y1="63.48" x2="201.72" y2="63.48"/>
        </g>
        <g>
          <line class="cls-1" x1="207.48" y1="28.92" x2="207.48" y2="57.72"/>
          <line class="cls-1" x1="219" y1="28.92" x2="219" y2="57.72"/>
          <line class="cls-1" x1="213.24" y1="28.92" x2="213.24" y2="57.72"/>
          <line class="cls-1" x1="224.76" y1="28.92" x2="224.76" y2="57.72"/>
          <line class="cls-1" x1="201.72" y1="51.96" x2="230.52" y2="51.96"/>
          <line class="cls-1" x1="201.72" y1="40.44" x2="230.52" y2="40.44"/>
          <line class="cls-1" x1="201.72" y1="46.2" x2="230.52" y2="46.2"/>
          <line class="cls-1" x1="201.72" y1="34.68" x2="230.52" y2="34.68"/>
        </g>
        <g>
          <line class="cls-1" x1="178.68" y1="28.92" x2="178.68" y2="57.72"/>
          <line class="cls-1" x1="190.2" y1="28.92" x2="190.2" y2="57.72"/>
          <line class="cls-1" x1="184.44" y1="28.92" x2="184.44" y2="57.72"/>
          <line class="cls-1" x1="195.96" y1="28.92" x2="195.96" y2="57.72"/>
          <line class="cls-1" x1="172.92" y1="51.96" x2="201.72" y2="51.96"/>
          <line class="cls-1" x1="172.92" y1="40.44" x2="201.72" y2="40.44"/>
          <line class="cls-1" x1="172.92" y1="46.2" x2="201.72" y2="46.2"/>
          <line class="cls-1" x1="172.92" y1="34.68" x2="201.72" y2="34.68"/>
        </g>
        <g>
          <line class="cls-1" x1="207.48" y1="57.72" x2="207.48" y2="86.53"/>
          <line class="cls-1" x1="219" y1="57.72" x2="219" y2="86.52"/>
          <line class="cls-1" x1="213.24" y1="57.72" x2="213.24" y2="86.52"/>
          <line class="cls-1" x1="224.76" y1="57.72" x2="224.76" y2="86.52"/>
          <line class="cls-1" x1="201.72" y1="80.76" x2="230.52" y2="80.76"/>
          <line class="cls-1" x1="201.72" y1="69.24" x2="230.52" y2="69.24"/>
          <line class="cls-1" x1="201.72" y1="75.01" x2="230.52" y2="75.01"/>
          <line class="cls-1" x1="201.72" y1="63.48" x2="230.52" y2="63.48"/>
        </g>
      </g>
      <g>
        <polyline class="cls-1" points=".12 115.48 .29 230.68 115.49 230.52 115.49 115.33"/>
        <line class="cls-1" x1="86.69" y1="230.56" x2="86.52" y2="115.36"/>
        <line class="cls-1" x1="57.89" y1="230.6" x2="57.72" y2="115.4"/>
        <line class="cls-1" x1="29.09" y1="230.64" x2="28.92" y2="115.44"/>
        <line class="cls-1" x1=".25" y1="201.88" x2="115.45" y2="201.72"/>
        <line class="cls-1" x1=".21" y1="173.08" x2="115.41" y2="172.92"/>
        <line class="cls-1" x1="115.37" y1="144.12" x2=".17" y2="144.28"/>
        <g>
          <line class="cls-1" x1="23.21" y1="144.25" x2="23.16" y2="115.45"/>
          <line class="cls-1" x1="11.69" y1="144.27" x2="11.64" y2="115.47"/>
          <line class="cls-1" x1="17.45" y1="144.26" x2="17.4" y2="115.46"/>
          <line class="cls-1" x1="5.93" y1="144.28" x2="5.88" y2="115.48"/>
          <line class="cls-1" x1="28.93" y1="121.2" x2=".13" y2="121.24"/>
          <line class="cls-1" x1="28.95" y1="132.72" x2=".15" y2="132.76"/>
          <line class="cls-1" x1="28.94" y1="126.96" x2=".14" y2="127"/>
          <line class="cls-1" x1="28.96" y1="138.48" x2=".16" y2="138.52"/>
        </g>
        <g>
          <line class="cls-1" x1="109.69" y1="201.72" x2="109.65" y2="172.92"/>
          <line class="cls-1" x1="98.17" y1="201.74" x2="98.13" y2="172.94"/>
          <line class="cls-1" x1="103.93" y1="201.73" x2="103.89" y2="172.93"/>
          <line class="cls-1" x1="92.41" y1="201.75" x2="92.37" y2="172.95"/>
          <line class="cls-1" x1="115.42" y1="178.68" x2="86.62" y2="178.72"/>
          <line class="cls-1" x1="115.43" y1="190.2" x2="86.63" y2="190.24"/>
          <line class="cls-1" x1="115.43" y1="184.44" x2="86.63" y2="184.48"/>
          <line class="cls-1" x1="115.44" y1="195.96" x2="86.64" y2="196"/>
        </g>
        <g>
          <line class="cls-1" x1="109.73" y1="230.52" x2="109.69" y2="201.72"/>
          <line class="cls-1" x1="98.21" y1="230.54" x2="98.17" y2="201.74"/>
          <line class="cls-1" x1="103.97" y1="230.53" x2="103.93" y2="201.73"/>
          <line class="cls-1" x1="92.45" y1="230.55" x2="92.41" y2="201.75"/>
          <line class="cls-1" x1="115.46" y1="207.48" x2="86.66" y2="207.52"/>
          <line class="cls-1" x1="115.48" y1="219" x2="86.68" y2="219.04"/>
          <line class="cls-1" x1="115.47" y1="213.24" x2="86.67" y2="213.28"/>
          <line class="cls-1" x1="115.48" y1="224.76" x2="86.68" y2="224.8"/>
        </g>
        <g>
          <line class="cls-1" x1="52.13" y1="230.61" x2="52.09" y2="201.81"/>
          <line class="cls-1" x1="40.61" y1="230.63" x2="40.57" y2="201.83"/>
          <line class="cls-1" x1="46.37" y1="230.62" x2="46.33" y2="201.82"/>
          <line class="cls-1" x1="34.85" y1="230.63" x2="34.81" y2="201.83"/>
          <line class="cls-1" x1="57.86" y1="207.56" x2="29.06" y2="207.6"/>
          <line class="cls-1" x1="57.88" y1="219.08" x2="29.08" y2="219.12"/>
          <line class="cls-1" x1="57.87" y1="213.32" x2="29.07" y2="213.36"/>
          <line class="cls-1" x1="57.88" y1="224.84" x2="29.08" y2="224.88"/>
        </g>
        <g>
          <line class="cls-1" x1="80.93" y1="230.57" x2="80.89" y2="201.77"/>
          <line class="cls-1" x1="69.41" y1="230.58" x2="69.37" y2="201.78"/>
          <line class="cls-1" x1="75.17" y1="230.58" x2="75.13" y2="201.78"/>
          <line class="cls-1" x1="63.65" y1="230.59" x2="63.61" y2="201.79"/>
          <line class="cls-1" x1="86.66" y1="207.52" x2="57.86" y2="207.56"/>
          <line class="cls-1" x1="86.68" y1="219.04" x2="57.88" y2="219.08"/>
          <line class="cls-1" x1="86.67" y1="213.28" x2="57.87" y2="213.32"/>
          <line class="cls-1" x1="86.68" y1="224.8" x2="57.88" y2="224.84"/>
        </g>
        <g>
          <line class="cls-1" x1="23.33" y1="230.65" x2="23.29" y2="201.85"/>
          <line class="cls-1" x1="11.81" y1="230.67" x2="11.77" y2="201.87"/>
          <line class="cls-1" x1="17.57" y1="230.66" x2="17.53" y2="201.86"/>
          <line class="cls-1" x1="6.05" y1="230.68" x2="6.01" y2="201.88"/>
          <line class="cls-1" x1="29.06" y1="207.6" x2=".26" y2="207.64"/>
          <line class="cls-1" x1="29.08" y1="219.12" x2=".28" y2="219.16"/>
          <line class="cls-1" x1="29.07" y1="213.36" x2=".27" y2="213.4"/>
          <line class="cls-1" x1="29.08" y1="224.88" x2=".28" y2="224.92"/>
        </g>
        <g>
          <line class="cls-1" x1="80.89" y1="201.77" x2="80.85" y2="172.97"/>
          <line class="cls-1" x1="69.37" y1="201.78" x2="69.33" y2="172.98"/>
          <line class="cls-1" x1="75.13" y1="201.78" x2="75.09" y2="172.98"/>
          <line class="cls-1" x1="63.61" y1="201.79" x2="63.57" y2="172.99"/>
          <line class="cls-1" x1="86.62" y1="178.72" x2="57.82" y2="178.76"/>
          <line class="cls-1" x1="86.63" y1="190.24" x2="57.83" y2="190.28"/>
          <line class="cls-1" x1="86.63" y1="184.48" x2="57.83" y2="184.52"/>
          <line class="cls-1" x1="86.64" y1="196" x2="57.84" y2="196.04"/>
        </g>
        <g>
          <line class="cls-1" x1="80.81" y1="144.17" x2="80.76" y2="115.37"/>
          <line class="cls-1" x1="69.29" y1="144.18" x2="69.24" y2="115.38"/>
          <line class="cls-1" x1="75.05" y1="144.18" x2="75" y2="115.38"/>
          <line class="cls-1" x1="63.53" y1="144.19" x2="63.48" y2="115.39"/>
          <line class="cls-1" x1="86.53" y1="121.12" x2="57.73" y2="121.16"/>
          <line class="cls-1" x1="86.55" y1="132.64" x2="57.75" y2="132.68"/>
          <line class="cls-1" x1="86.54" y1="126.88" x2="57.74" y2="126.92"/>
          <line class="cls-1" x1="86.56" y1="138.4" x2="57.76" y2="138.44"/>
        </g>
        <g>
          <line class="cls-1" x1="109.65" y1="172.92" x2="109.61" y2="144.12"/>
          <line class="cls-1" x1="98.13" y1="172.94" x2="98.09" y2="144.14"/>
          <line class="cls-1" x1="103.89" y1="172.93" x2="103.85" y2="144.13"/>
          <line class="cls-1" x1="92.37" y1="172.95" x2="92.33" y2="144.15"/>
          <line class="cls-1" x1="115.38" y1="149.88" x2="86.58" y2="149.92"/>
          <line class="cls-1" x1="115.39" y1="161.4" x2="86.59" y2="161.44"/>
          <line class="cls-1" x1="115.38" y1="155.64" x2="86.58" y2="155.68"/>
          <line class="cls-1" x1="115.4" y1="167.16" x2="86.6" y2="167.2"/>
        </g>
        <g>
          <line class="cls-1" x1="80.85" y1="172.97" x2="80.81" y2="144.17"/>
          <line class="cls-1" x1="69.33" y1="172.98" x2="69.29" y2="144.18"/>
          <line class="cls-1" x1="75.09" y1="172.98" x2="75.05" y2="144.18"/>
          <line class="cls-1" x1="63.57" y1="172.99" x2="63.53" y2="144.19"/>
          <line class="cls-1" x1="86.58" y1="149.92" x2="57.78" y2="149.96"/>
          <line class="cls-1" x1="86.59" y1="161.44" x2="57.79" y2="161.48"/>
          <line class="cls-1" x1="86.58" y1="155.68" x2="57.78" y2="155.72"/>
          <line class="cls-1" x1="86.6" y1="167.2" x2="57.8" y2="167.24"/>
        </g>
        <g>
          <line class="cls-1" x1="109.61" y1="144.12" x2="109.56" y2="115.33"/>
          <line class="cls-1" x1="98.09" y1="144.14" x2="98.04" y2="115.34"/>
          <line class="cls-1" x1="103.85" y1="144.13" x2="103.8" y2="115.33"/>
          <line class="cls-1" x1="92.33" y1="144.15" x2="92.28" y2="115.35"/>
          <line class="cls-1" x1="115.33" y1="121.08" x2="86.53" y2="121.12"/>
          <line class="cls-1" x1="115.35" y1="132.6" x2="86.55" y2="132.64"/>
          <line class="cls-1" x1="115.34" y1="126.84" x2="86.54" y2="126.88"/>
          <line class="cls-1" x1="115.36" y1="138.36" x2="86.56" y2="138.4"/>
        </g>
        <g>
          <line class="cls-1" x1="52.01" y1="144.21" x2="51.96" y2="115.41"/>
          <line class="cls-1" x1="40.49" y1="144.23" x2="40.44" y2="115.43"/>
          <line class="cls-1" x1="46.25" y1="144.22" x2="46.2" y2="115.42"/>
          <line class="cls-1" x1="34.73" y1="144.23" x2="34.68" y2="115.43"/>
          <line class="cls-1" x1="57.73" y1="121.16" x2="28.93" y2="121.2"/>
          <line class="cls-1" x1="57.75" y1="132.68" x2="28.95" y2="132.72"/>
          <line class="cls-1" x1="57.74" y1="126.92" x2="28.94" y2="126.96"/>
          <line class="cls-1" x1="57.76" y1="138.44" x2="28.96" y2="138.48"/>
        </g>
        <g>
          <line class="cls-1" x1="52.05" y1="173.01" x2="52.01" y2="144.21"/>
          <line class="cls-1" x1="40.53" y1="173.03" x2="40.49" y2="144.23"/>
          <line class="cls-1" x1="46.29" y1="173.02" x2="46.25" y2="144.22"/>
          <line class="cls-1" x1="34.77" y1="173.03" x2="34.73" y2="144.23"/>
          <line class="cls-1" x1="57.78" y1="149.96" x2="28.98" y2="150"/>
          <line class="cls-1" x1="57.79" y1="161.48" x2="28.99" y2="161.52"/>
          <line class="cls-1" x1="57.78" y1="155.72" x2="28.98" y2="155.76"/>
          <line class="cls-1" x1="57.8" y1="167.24" x2="29" y2="167.28"/>
        </g>
        <g>
          <line class="cls-1" x1="23.29" y1="201.85" x2="23.25" y2="173.05"/>
          <line class="cls-1" x1="11.77" y1="201.87" x2="11.73" y2="173.07"/>
          <line class="cls-1" x1="17.53" y1="201.86" x2="17.49" y2="173.06"/>
          <line class="cls-1" x1="6.01" y1="201.88" x2="5.97" y2="173.08"/>
          <line class="cls-1" x1="29.02" y1="178.8" x2=".22" y2="178.84"/>
          <line class="cls-1" x1="29.03" y1="190.32" x2=".23" y2="190.36"/>
          <line class="cls-1" x1="29.03" y1="184.56" x2=".23" y2="184.6"/>
          <line class="cls-1" x1="29.04" y1="196.08" x2=".24" y2="196.12"/>
        </g>
        <g>
          <line class="cls-1" x1="52.09" y1="201.81" x2="52.05" y2="173.01"/>
          <line class="cls-1" x1="40.57" y1="201.83" x2="40.53" y2="173.03"/>
          <line class="cls-1" x1="46.33" y1="201.82" x2="46.29" y2="173.02"/>
          <line class="cls-1" x1="34.81" y1="201.83" x2="34.77" y2="173.03"/>
          <line class="cls-1" x1="57.82" y1="178.76" x2="29.02" y2="178.8"/>
          <line class="cls-1" x1="57.83" y1="190.28" x2="29.03" y2="190.32"/>
          <line class="cls-1" x1="57.83" y1="184.52" x2="29.03" y2="184.56"/>
          <line class="cls-1" x1="57.84" y1="196.04" x2="29.04" y2="196.08"/>
        </g>
        <g>
          <line class="cls-1" x1="23.25" y1="173.05" x2="23.21" y2="144.25"/>
          <line class="cls-1" x1="11.73" y1="173.07" x2="11.69" y2="144.27"/>
          <line class="cls-1" x1="17.49" y1="173.06" x2="17.45" y2="144.26"/>
          <line class="cls-1" x1="5.97" y1="173.08" x2="5.93" y2="144.28"/>
          <line class="cls-1" x1="28.98" y1="150" x2=".18" y2="150.04"/>
          <line class="cls-1" x1="28.99" y1="161.52" x2=".19" y2="161.56"/>
          <line class="cls-1" x1="28.98" y1="155.76" x2=".18" y2="155.8"/>
          <line class="cls-1" x1="29" y1="167.28" x2=".2" y2="167.32"/>
        </g>
      </g>
      <g>
        <polyline class="cls-1" points="115.32 230.53 230.52 230.53 230.52 115.33 115.33 115.33"/>
        <line class="cls-1" x1="230.52" y1="144.13" x2="115.32" y2="144.13"/>
        <line class="cls-1" x1="230.52" y1="172.93" x2="115.32" y2="172.93"/>
        <line class="cls-1" x1="230.52" y1="201.73" x2="115.32" y2="201.73"/>
        <line class="cls-1" x1="201.73" y1="230.53" x2="201.73" y2="115.33"/>
        <line class="cls-1" x1="172.93" y1="230.53" x2="172.93" y2="115.33"/>
        <line class="cls-1" x1="144.12" y1="115.33" x2="144.12" y2="230.53"/>
        <g>
          <line class="cls-1" x1="144.12" y1="207.49" x2="115.32" y2="207.49"/>
          <line class="cls-1" x1="144.13" y1="219.01" x2="115.32" y2="219.01"/>
          <line class="cls-1" x1="144.13" y1="213.25" x2="115.32" y2="213.25"/>
          <line class="cls-1" x1="144.13" y1="224.77" x2="115.32" y2="224.77"/>
          <line class="cls-1" x1="121.08" y1="201.73" x2="121.08" y2="230.53"/>
          <line class="cls-1" x1="132.6" y1="201.73" x2="132.6" y2="230.53"/>
          <line class="cls-1" x1="126.84" y1="201.73" x2="126.84" y2="230.53"/>
          <line class="cls-1" x1="138.36" y1="201.73" x2="138.36" y2="230.53"/>
        </g>
        <g>
          <line class="cls-1" x1="201.73" y1="121.09" x2="172.93" y2="121.09"/>
          <line class="cls-1" x1="201.73" y1="132.61" x2="172.93" y2="132.61"/>
          <line class="cls-1" x1="201.73" y1="126.85" x2="172.93" y2="126.85"/>
          <line class="cls-1" x1="201.73" y1="138.37" x2="172.93" y2="138.37"/>
          <line class="cls-1" x1="178.69" y1="115.33" x2="178.69" y2="144.13"/>
          <line class="cls-1" x1="190.2" y1="115.33" x2="190.2" y2="144.13"/>
          <line class="cls-1" x1="184.45" y1="115.33" x2="184.45" y2="144.13"/>
          <line class="cls-1" x1="195.97" y1="115.33" x2="195.97" y2="144.13"/>
        </g>
        <g>
          <line class="cls-1" x1="230.52" y1="121.09" x2="201.73" y2="121.09"/>
          <line class="cls-1" x1="230.52" y1="132.61" x2="201.73" y2="132.61"/>
          <line class="cls-1" x1="230.52" y1="126.85" x2="201.73" y2="126.85"/>
          <line class="cls-1" x1="230.52" y1="138.37" x2="201.73" y2="138.37"/>
          <line class="cls-1" x1="207.49" y1="115.33" x2="207.49" y2="144.13"/>
          <line class="cls-1" x1="219.01" y1="115.33" x2="219.01" y2="144.13"/>
          <line class="cls-1" x1="213.25" y1="115.33" x2="213.25" y2="144.13"/>
          <line class="cls-1" x1="224.77" y1="115.33" x2="224.77" y2="144.13"/>
        </g>
        <g>
          <line class="cls-1" x1="230.52" y1="178.69" x2="201.73" y2="178.69"/>
          <line class="cls-1" x1="230.52" y1="190.21" x2="201.73" y2="190.21"/>
          <line class="cls-1" x1="230.52" y1="184.45" x2="201.73" y2="184.45"/>
          <line class="cls-1" x1="230.52" y1="195.97" x2="201.73" y2="195.97"/>
          <line class="cls-1" x1="207.49" y1="172.93" x2="207.49" y2="201.73"/>
          <line class="cls-1" x1="219" y1="172.93" x2="219" y2="201.73"/>
          <line class="cls-1" x1="213.25" y1="172.93" x2="213.25" y2="201.73"/>
          <line class="cls-1" x1="224.77" y1="172.93" x2="224.77" y2="201.73"/>
        </g>
        <g>
          <line class="cls-1" x1="230.52" y1="149.89" x2="201.73" y2="149.89"/>
          <line class="cls-1" x1="230.52" y1="161.41" x2="201.73" y2="161.41"/>
          <line class="cls-1" x1="230.52" y1="155.65" x2="201.73" y2="155.65"/>
          <line class="cls-1" x1="230.52" y1="167.17" x2="201.73" y2="167.17"/>
          <line class="cls-1" x1="207.49" y1="144.13" x2="207.49" y2="172.93"/>
          <line class="cls-1" x1="219" y1="144.13" x2="219" y2="172.93"/>
          <line class="cls-1" x1="213.25" y1="144.13" x2="213.25" y2="172.93"/>
          <line class="cls-1" x1="224.77" y1="144.13" x2="224.77" y2="172.93"/>
        </g>
        <g>
          <line class="cls-1" x1="230.52" y1="207.49" x2="201.73" y2="207.49"/>
          <line class="cls-1" x1="230.52" y1="219.01" x2="201.73" y2="219.01"/>
          <line class="cls-1" x1="230.52" y1="213.25" x2="201.73" y2="213.25"/>
          <line class="cls-1" x1="230.52" y1="224.77" x2="201.73" y2="224.77"/>
          <line class="cls-1" x1="207.49" y1="201.73" x2="207.49" y2="230.53"/>
          <line class="cls-1" x1="219.01" y1="201.73" x2="219.01" y2="230.53"/>
          <line class="cls-1" x1="213.25" y1="201.73" x2="213.25" y2="230.53"/>
          <line class="cls-1" x1="224.77" y1="201.73" x2="224.77" y2="230.53"/>
        </g>
        <g>
          <line class="cls-1" x1="201.73" y1="149.89" x2="172.92" y2="149.89"/>
          <line class="cls-1" x1="201.73" y1="161.41" x2="172.92" y2="161.41"/>
          <line class="cls-1" x1="201.73" y1="155.65" x2="172.92" y2="155.65"/>
          <line class="cls-1" x1="201.73" y1="167.17" x2="172.92" y2="167.17"/>
          <line class="cls-1" x1="178.68" y1="144.13" x2="178.68" y2="172.93"/>
          <line class="cls-1" x1="190.2" y1="144.13" x2="190.2" y2="172.93"/>
          <line class="cls-1" x1="184.45" y1="144.13" x2="184.45" y2="172.93"/>
          <line class="cls-1" x1="195.97" y1="144.13" x2="195.97" y2="172.93"/>
        </g>
        <g>
          <line class="cls-1" x1="144.12" y1="149.89" x2="115.32" y2="149.89"/>
          <line class="cls-1" x1="144.13" y1="161.41" x2="115.32" y2="161.41"/>
          <line class="cls-1" x1="144.13" y1="155.65" x2="115.32" y2="155.65"/>
          <line class="cls-1" x1="144.13" y1="167.17" x2="115.32" y2="167.17"/>
          <line class="cls-1" x1="121.08" y1="144.13" x2="121.08" y2="172.93"/>
          <line class="cls-1" x1="132.6" y1="144.13" x2="132.6" y2="172.93"/>
          <line class="cls-1" x1="126.84" y1="144.13" x2="126.84" y2="172.93"/>
          <line class="cls-1" x1="138.36" y1="144.13" x2="138.36" y2="172.93"/>
        </g>
        <g>
          <line class="cls-1" x1="172.93" y1="121.09" x2="144.12" y2="121.09"/>
          <line class="cls-1" x1="172.93" y1="132.61" x2="144.13" y2="132.61"/>
          <line class="cls-1" x1="172.93" y1="126.85" x2="144.13" y2="126.85"/>
          <line class="cls-1" x1="172.93" y1="138.37" x2="144.13" y2="138.37"/>
          <line class="cls-1" x1="149.89" y1="115.33" x2="149.89" y2="144.13"/>
          <line class="cls-1" x1="161.41" y1="115.33" x2="161.41" y2="144.13"/>
          <line class="cls-1" x1="155.64" y1="115.33" x2="155.64" y2="144.13"/>
          <line class="cls-1" x1="167.16" y1="115.33" x2="167.16" y2="144.13"/>
        </g>
        <g>
          <line class="cls-1" x1="172.93" y1="149.89" x2="144.12" y2="149.89"/>
          <line class="cls-1" x1="172.93" y1="161.41" x2="144.13" y2="161.41"/>
          <line class="cls-1" x1="172.93" y1="155.65" x2="144.13" y2="155.65"/>
          <line class="cls-1" x1="172.93" y1="167.17" x2="144.13" y2="167.17"/>
          <line class="cls-1" x1="149.89" y1="144.13" x2="149.89" y2="172.93"/>
          <line class="cls-1" x1="161.41" y1="144.13" x2="161.41" y2="172.93"/>
          <line class="cls-1" x1="155.64" y1="144.13" x2="155.64" y2="172.93"/>
          <line class="cls-1" x1="167.16" y1="144.13" x2="167.16" y2="172.93"/>
        </g>
        <g>
          <line class="cls-1" x1="144.12" y1="121.09" x2="115.32" y2="121.09"/>
          <line class="cls-1" x1="144.13" y1="132.61" x2="115.32" y2="132.61"/>
          <line class="cls-1" x1="144.13" y1="126.85" x2="115.32" y2="126.85"/>
          <line class="cls-1" x1="144.13" y1="138.37" x2="115.32" y2="138.37"/>
          <line class="cls-1" x1="121.08" y1="115.33" x2="121.08" y2="144.13"/>
          <line class="cls-1" x1="132.6" y1="115.33" x2="132.6" y2="144.13"/>
          <line class="cls-1" x1="126.84" y1="115.33" x2="126.84" y2="144.13"/>
          <line class="cls-1" x1="138.36" y1="115.33" x2="138.36" y2="144.13"/>
        </g>
        <g>
          <line class="cls-1" x1="144.12" y1="178.69" x2="115.32" y2="178.69"/>
          <line class="cls-1" x1="144.12" y1="190.21" x2="115.32" y2="190.21"/>
          <line class="cls-1" x1="144.12" y1="184.45" x2="115.32" y2="184.45"/>
          <line class="cls-1" x1="144.12" y1="195.97" x2="115.32" y2="195.97"/>
          <line class="cls-1" x1="121.08" y1="172.93" x2="121.08" y2="201.73"/>
          <line class="cls-1" x1="132.6" y1="172.93" x2="132.6" y2="201.73"/>
          <line class="cls-1" x1="126.84" y1="172.93" x2="126.84" y2="201.73"/>
          <line class="cls-1" x1="138.36" y1="172.93" x2="138.36" y2="201.73"/>
        </g>
        <g>
          <line class="cls-1" x1="172.92" y1="178.69" x2="144.12" y2="178.69"/>
          <line class="cls-1" x1="172.93" y1="190.21" x2="144.12" y2="190.21"/>
          <line class="cls-1" x1="172.93" y1="184.45" x2="144.12" y2="184.45"/>
          <line class="cls-1" x1="172.93" y1="195.97" x2="144.12" y2="195.97"/>
          <line class="cls-1" x1="149.89" y1="172.93" x2="149.89" y2="201.73"/>
          <line class="cls-1" x1="161.41" y1="172.93" x2="161.41" y2="201.73"/>
          <line class="cls-1" x1="155.64" y1="172.93" x2="155.64" y2="201.73"/>
          <line class="cls-1" x1="167.16" y1="172.93" x2="167.16" y2="201.73"/>
        </g>
        <g>
          <line class="cls-1" x1="201.73" y1="207.49" x2="172.93" y2="207.49"/>
          <line class="cls-1" x1="201.73" y1="219.01" x2="172.93" y2="219.01"/>
          <line class="cls-1" x1="201.73" y1="213.25" x2="172.93" y2="213.25"/>
          <line class="cls-1" x1="201.73" y1="224.77" x2="172.93" y2="224.77"/>
          <line class="cls-1" x1="178.69" y1="201.73" x2="178.69" y2="230.53"/>
          <line class="cls-1" x1="190.2" y1="201.73" x2="190.2" y2="230.53"/>
          <line class="cls-1" x1="184.45" y1="201.73" x2="184.45" y2="230.53"/>
          <line class="cls-1" x1="195.97" y1="201.73" x2="195.97" y2="230.53"/>
        </g>
        <g>
          <line class="cls-1" x1="201.73" y1="178.69" x2="172.93" y2="178.69"/>
          <line class="cls-1" x1="201.73" y1="190.21" x2="172.93" y2="190.21"/>
          <line class="cls-1" x1="201.73" y1="184.45" x2="172.93" y2="184.45"/>
          <line class="cls-1" x1="201.73" y1="195.97" x2="172.93" y2="195.97"/>
          <line class="cls-1" x1="178.69" y1="172.93" x2="178.69" y2="201.73"/>
          <line class="cls-1" x1="190.2" y1="172.93" x2="190.2" y2="201.73"/>
          <line class="cls-1" x1="184.45" y1="172.93" x2="184.45" y2="201.73"/>
          <line class="cls-1" x1="195.97" y1="172.93" x2="195.97" y2="201.73"/>
        </g>
        <g>
          <line class="cls-1" x1="172.93" y1="207.49" x2="144.12" y2="207.49"/>
          <line class="cls-1" x1="172.93" y1="219.01" x2="144.13" y2="219.01"/>
          <line class="cls-1" x1="172.93" y1="213.25" x2="144.13" y2="213.25"/>
          <line class="cls-1" x1="172.93" y1="224.77" x2="144.13" y2="224.77"/>
          <line class="cls-1" x1="149.89" y1="201.73" x2="149.89" y2="230.53"/>
          <line class="cls-1" x1="161.41" y1="201.73" x2="161.41" y2="230.53"/>
          <line class="cls-1" x1="155.64" y1="201.73" x2="155.64" y2="230.53"/>
          <line class="cls-1" x1="167.16" y1="201.73" x2="167.16" y2="230.53"/>
        </g>
      </g>
    </g>
  </g>
</svg>