<?xml version="1.0" encoding="UTF-8"?>
<svg id="Layer_2" data-name="Layer 2" xmlns="http://www.w3.org/2000/svg" viewBox="0 0 160.41 160.41">
  <defs>
    <style>
      .cls-1 {
        fill: none;
        stroke: #e6e7e8;
        stroke-miterlimit: 10;
        stroke-width: .25px;
      }
    </style>
  </defs>
  <g id="Layer_1-2" data-name="Layer 1">
    <g>
      <g>
        <rect class="cls-1" x="22.6" y="22.6" width="115.2" height="115.2" transform="translate(-31.23 59.04) rotate(-34.25)"/>
        <line class="cls-1" x1="111.61" y1="23.98" x2="16.38" y2="88.81"/>
        <line class="cls-1" x1="127.81" y1="47.79" x2="32.59" y2="112.62"/>
        <line class="cls-1" x1="144.02" y1="71.59" x2="48.8" y2="136.43"/>
        <line class="cls-1" x1="136.43" y1="111.61" x2="71.59" y2="16.38"/>
        <line class="cls-1" x1="112.62" y1="127.81" x2="47.79" y2="32.59"/>
        <line class="cls-1" x1="23.98" y1="48.8" x2="88.81" y2="144.02"/>
      </g>
      <g>
        <line class="cls-1" x1="75.85" y1="124.98" x2="52.04" y2="141.19"/>
        <line class="cls-1" x1="82.33" y1="134.5" x2="58.52" y2="150.71"/>
        <line class="cls-1" x1="79.09" y1="129.74" x2="55.28" y2="145.95"/>
        <line class="cls-1" x1="85.57" y1="139.26" x2="61.77" y2="155.47"/>
        <line class="cls-1" x1="53.56" y1="133.18" x2="69.77" y2="156.99"/>
        <line class="cls-1" x1="63.08" y1="126.7" x2="79.29" y2="150.51"/>
        <line class="cls-1" x1="58.32" y1="129.94" x2="74.53" y2="153.75"/>
        <line class="cls-1" x1="67.84" y1="123.46" x2="84.05" y2="147.26"/>
      </g>
      <g>
        <line class="cls-1" x1="74.83" y1="21.14" x2="51.03" y2="37.35"/>
        <line class="cls-1" x1="81.32" y1="30.67" x2="57.51" y2="46.87"/>
        <line class="cls-1" x1="78.08" y1="25.9" x2="54.27" y2="42.11"/>
        <line class="cls-1" x1="84.56" y1="35.43" x2="60.75" y2="51.64"/>
        <line class="cls-1" x1="52.55" y1="29.35" x2="68.76" y2="53.15"/>
        <line class="cls-1" x1="62.07" y1="22.87" x2="78.28" y2="46.67"/>
        <line class="cls-1" x1="57.31" y1="26.11" x2="73.52" y2="49.91"/>
        <line class="cls-1" x1="66.83" y1="19.62" x2="83.04" y2="43.43"/>
      </g>
      <g>
        <line class="cls-1" x1="98.64" y1="4.93" x2="74.83" y2="21.14"/>
        <line class="cls-1" x1="105.12" y1="14.46" x2="81.32" y2="30.67"/>
        <line class="cls-1" x1="101.88" y1="9.7" x2="78.08" y2="25.9"/>
        <line class="cls-1" x1="108.36" y1="19.22" x2="84.56" y2="35.43"/>
        <line class="cls-1" x1="76.35" y1="13.14" x2="92.56" y2="36.95"/>
        <line class="cls-1" x1="85.88" y1="6.66" x2="102.08" y2="30.46"/>
        <line class="cls-1" x1="81.11" y1="9.9" x2="97.32" y2="33.7"/>
        <line class="cls-1" x1="90.64" y1="3.42" x2="106.85" y2="27.22"/>
      </g>
      <g>
        <line class="cls-1" x1="131.06" y1="52.55" x2="107.25" y2="68.76"/>
        <line class="cls-1" x1="137.54" y1="62.07" x2="113.73" y2="78.28"/>
        <line class="cls-1" x1="134.3" y1="57.31" x2="110.49" y2="73.52"/>
        <line class="cls-1" x1="140.78" y1="66.83" x2="116.98" y2="83.04"/>
        <line class="cls-1" x1="108.77" y1="60.75" x2="124.98" y2="84.56"/>
        <line class="cls-1" x1="118.29" y1="54.27" x2="134.5" y2="78.08"/>
        <line class="cls-1" x1="113.53" y1="57.51" x2="129.74" y2="81.32"/>
        <line class="cls-1" x1="123.05" y1="51.03" x2="139.26" y2="74.83"/>
      </g>
      <g>
        <line class="cls-1" x1="114.85" y1="28.74" x2="91.04" y2="44.95"/>
        <line class="cls-1" x1="121.33" y1="38.26" x2="97.53" y2="54.47"/>
        <line class="cls-1" x1="118.09" y1="33.5" x2="94.28" y2="49.71"/>
        <line class="cls-1" x1="124.57" y1="43.02" x2="100.77" y2="59.23"/>
        <line class="cls-1" x1="92.56" y1="36.95" x2="108.77" y2="60.75"/>
        <line class="cls-1" x1="102.08" y1="30.46" x2="118.29" y2="54.27"/>
        <line class="cls-1" x1="97.32" y1="33.7" x2="113.53" y2="57.51"/>
        <line class="cls-1" x1="106.85" y1="27.22" x2="123.05" y2="51.03"/>
      </g>
      <g>
        <line class="cls-1" x1="147.26" y1="76.35" x2="123.46" y2="92.56"/>
        <line class="cls-1" x1="153.75" y1="85.88" x2="129.94" y2="102.08"/>
        <line class="cls-1" x1="150.51" y1="81.11" x2="126.7" y2="97.32"/>
        <line class="cls-1" x1="156.99" y1="90.64" x2="133.18" y2="106.85"/>
        <line class="cls-1" x1="124.98" y1="84.56" x2="141.19" y2="108.36"/>
        <line class="cls-1" x1="134.5" y1="78.08" x2="150.71" y2="101.88"/>
        <line class="cls-1" x1="129.74" y1="81.32" x2="145.95" y2="105.12"/>
        <line class="cls-1" x1="139.26" y1="74.83" x2="155.47" y2="98.64"/>
      </g>
      <g>
        <line class="cls-1" x1="91.04" y1="44.95" x2="67.24" y2="61.16"/>
        <line class="cls-1" x1="97.53" y1="54.47" x2="73.72" y2="70.68"/>
        <line class="cls-1" x1="94.28" y1="49.71" x2="70.48" y2="65.92"/>
        <line class="cls-1" x1="100.77" y1="59.23" x2="76.96" y2="75.44"/>
        <line class="cls-1" x1="68.76" y1="53.15" x2="84.96" y2="76.96"/>
        <line class="cls-1" x1="78.28" y1="46.67" x2="94.49" y2="70.48"/>
        <line class="cls-1" x1="73.52" y1="49.91" x2="89.72" y2="73.72"/>
        <line class="cls-1" x1="83.04" y1="43.43" x2="99.25" y2="67.24"/>
      </g>
      <g>
        <line class="cls-1" x1="43.43" y1="77.37" x2="19.62" y2="93.57"/>
        <line class="cls-1" x1="49.91" y1="86.89" x2="26.11" y2="103.1"/>
        <line class="cls-1" x1="46.67" y1="82.13" x2="22.87" y2="98.34"/>
        <line class="cls-1" x1="53.15" y1="91.65" x2="29.35" y2="107.86"/>
        <line class="cls-1" x1="21.14" y1="85.57" x2="37.35" y2="109.38"/>
        <line class="cls-1" x1="30.67" y1="79.09" x2="46.87" y2="102.89"/>
        <line class="cls-1" x1="25.9" y1="82.33" x2="42.11" y2="106.14"/>
        <line class="cls-1" x1="35.43" y1="75.85" x2="51.64" y2="99.65"/>
      </g>
      <g>
        <line class="cls-1" x1="51.03" y1="37.35" x2="27.22" y2="53.56"/>
        <line class="cls-1" x1="57.51" y1="46.87" x2="33.7" y2="63.08"/>
        <line class="cls-1" x1="54.27" y1="42.11" x2="30.46" y2="58.32"/>
        <line class="cls-1" x1="60.75" y1="51.64" x2="36.95" y2="67.84"/>
        <line class="cls-1" x1="28.74" y1="45.56" x2="44.95" y2="69.36"/>
        <line class="cls-1" x1="38.26" y1="39.07" x2="54.47" y2="62.88"/>
        <line class="cls-1" x1="33.5" y1="42.32" x2="49.71" y2="66.12"/>
        <line class="cls-1" x1="43.02" y1="35.83" x2="59.23" y2="59.64"/>
      </g>
      <g>
        <line class="cls-1" x1="67.24" y1="61.16" x2="43.43" y2="77.37"/>
        <line class="cls-1" x1="73.72" y1="70.68" x2="49.91" y2="86.89"/>
        <line class="cls-1" x1="70.48" y1="65.92" x2="46.67" y2="82.13"/>
        <line class="cls-1" x1="76.96" y1="75.44" x2="53.15" y2="91.65"/>
        <line class="cls-1" x1="44.95" y1="69.36" x2="61.16" y2="93.17"/>
        <line class="cls-1" x1="54.47" y1="62.88" x2="70.68" y2="86.69"/>
        <line class="cls-1" x1="49.71" y1="66.12" x2="65.92" y2="89.93"/>
        <line class="cls-1" x1="59.23" y1="59.64" x2="75.44" y2="83.44"/>
      </g>
      <g>
        <line class="cls-1" x1="27.22" y1="53.56" x2="3.42" y2="69.77"/>
        <line class="cls-1" x1="33.7" y1="63.08" x2="9.9" y2="79.29"/>
        <line class="cls-1" x1="30.46" y1="58.32" x2="6.66" y2="74.53"/>
        <line class="cls-1" x1="36.95" y1="67.84" x2="13.14" y2="84.05"/>
        <line class="cls-1" x1="4.93" y1="61.77" x2="21.14" y2="85.57"/>
        <line class="cls-1" x1="14.46" y1="55.28" x2="30.67" y2="79.09"/>
        <line class="cls-1" x1="9.7" y1="58.52" x2="25.9" y2="82.33"/>
        <line class="cls-1" x1="19.22" y1="52.04" x2="35.43" y2="75.85"/>
      </g>
      <g>
        <line class="cls-1" x1="59.64" y1="101.17" x2="35.83" y2="117.38"/>
        <line class="cls-1" x1="66.12" y1="110.69" x2="42.32" y2="126.9"/>
        <line class="cls-1" x1="62.88" y1="105.93" x2="39.07" y2="122.14"/>
        <line class="cls-1" x1="69.36" y1="115.46" x2="45.56" y2="131.66"/>
        <line class="cls-1" x1="37.35" y1="109.38" x2="53.56" y2="133.18"/>
        <line class="cls-1" x1="46.87" y1="102.89" x2="63.08" y2="126.7"/>
        <line class="cls-1" x1="42.11" y1="106.14" x2="58.32" y2="129.94"/>
        <line class="cls-1" x1="51.64" y1="99.65" x2="67.84" y2="123.46"/>
      </g>
      <g>
        <line class="cls-1" x1="83.44" y1="84.96" x2="59.64" y2="101.17"/>
        <line class="cls-1" x1="89.93" y1="94.49" x2="66.12" y2="110.69"/>
        <line class="cls-1" x1="86.69" y1="89.72" x2="62.88" y2="105.93"/>
        <line class="cls-1" x1="93.17" y1="99.25" x2="69.36" y2="115.46"/>
        <line class="cls-1" x1="61.16" y1="93.17" x2="77.37" y2="116.98"/>
        <line class="cls-1" x1="70.68" y1="86.69" x2="86.89" y2="110.49"/>
        <line class="cls-1" x1="65.92" y1="89.93" x2="82.13" y2="113.73"/>
        <line class="cls-1" x1="75.44" y1="83.44" x2="91.65" y2="107.25"/>
      </g>
      <g>
        <line class="cls-1" x1="123.46" y1="92.56" x2="99.65" y2="108.77"/>
        <line class="cls-1" x1="129.94" y1="102.08" x2="106.14" y2="118.29"/>
        <line class="cls-1" x1="126.7" y1="97.32" x2="102.89" y2="113.53"/>
        <line class="cls-1" x1="133.18" y1="106.85" x2="109.38" y2="123.05"/>
        <line class="cls-1" x1="101.17" y1="100.77" x2="117.38" y2="124.57"/>
        <line class="cls-1" x1="110.69" y1="94.28" x2="126.9" y2="118.09"/>
        <line class="cls-1" x1="105.93" y1="97.53" x2="122.14" y2="121.33"/>
        <line class="cls-1" x1="115.46" y1="91.04" x2="131.66" y2="114.85"/>
      </g>
      <g>
        <line class="cls-1" x1="107.25" y1="68.76" x2="83.44" y2="84.96"/>
        <line class="cls-1" x1="113.73" y1="78.28" x2="89.93" y2="94.49"/>
        <line class="cls-1" x1="110.49" y1="73.52" x2="86.69" y2="89.72"/>
        <line class="cls-1" x1="116.98" y1="83.04" x2="93.17" y2="99.25"/>
        <line class="cls-1" x1="84.96" y1="76.96" x2="101.17" y2="100.77"/>
        <line class="cls-1" x1="94.49" y1="70.48" x2="110.69" y2="94.28"/>
        <line class="cls-1" x1="89.72" y1="73.72" x2="105.93" y2="97.53"/>
        <line class="cls-1" x1="99.25" y1="67.24" x2="115.46" y2="91.04"/>
      </g>
      <g>
        <line class="cls-1" x1="99.65" y1="108.77" x2="75.85" y2="124.98"/>
        <line class="cls-1" x1="106.14" y1="118.29" x2="82.33" y2="134.5"/>
        <line class="cls-1" x1="102.89" y1="113.53" x2="79.09" y2="129.74"/>
        <line class="cls-1" x1="109.38" y1="123.05" x2="85.57" y2="139.26"/>
        <line class="cls-1" x1="77.37" y1="116.98" x2="93.57" y2="140.78"/>
        <line class="cls-1" x1="86.89" y1="110.49" x2="103.1" y2="134.3"/>
        <line class="cls-1" x1="82.13" y1="113.73" x2="98.34" y2="137.54"/>
        <line class="cls-1" x1="91.65" y1="107.25" x2="107.86" y2="131.06"/>
      </g>
    </g>
  </g>
</svg>